<?xml version="1.0" encoding="UTF-8" standalone="no"?><!-- Generator: Gravit.io --><svg xmlns="http://www.w3.org/2000/svg" xmlns:xlink="http://www.w3.org/1999/xlink" style="isolation:isolate" viewBox="0 0 100 100" width="100pt" height="100pt"><defs><clipPath id="_clipPath_UCZPZBlrJtGfV8U2ziEK0VAibkf8drBF"><rect width="100" height="100"/></clipPath></defs><g clip-path="url(#_clipPath_UCZPZBlrJtGfV8U2ziEK0VAibkf8drBF)"><path d=" M 9.588 66.824 C 9.711 66.846 9.832 66.857 9.952 66.857 C 10.898 66.857 11.74 66.183 11.916 65.218 C 13.584 56.143 20.464 45.233 30.318 36.035 C 38.213 28.665 47.028 23.274 55.14 20.855 C 62.776 18.578 68.754 19.224 71.972 22.671 C 78.04 29.172 73.147 44.541 60.59 58.419 C 59.849 59.238 59.912 60.503 60.732 61.244 C 61.551 61.984 62.815 61.922 63.557 61.102 C 77.748 45.417 82.517 28.106 74.896 19.941 C 70.585 15.324 63.167 14.286 53.997 17.021 C 45.306 19.613 35.927 25.327 27.589 33.11 C 17.13 42.874 9.801 54.606 7.983 64.496 C 7.784 65.582 8.502 66.625 9.588 66.824 Z " fill="rgb(229,229,229)"/><path d=" M 91.768 38.272 C 90.703 37.981 89.603 38.606 89.31 39.671 C 86.937 48.314 80.433 58.071 71.465 66.443 C 55.785 81.079 36.71 87.195 29.811 79.808 C 22.912 72.415 30.33 53.807 46.008 39.173 C 46.816 38.42 46.859 37.154 46.105 36.346 C 45.351 35.538 44.086 35.495 43.278 36.249 C 25.42 52.918 18.22 73.25 26.887 82.537 C 29.683 85.532 33.737 86.959 38.549 86.959 C 48.654 86.959 62.096 80.661 74.195 69.368 C 83.688 60.506 90.604 50.067 93.168 40.73 C 93.459 39.666 92.833 38.565 91.768 38.272 Z " fill="rgb(229,229,229)"/><path d=" M 6.501 15.127 L 5.642 20.135 C 5.513 20.885 5.822 21.644 6.437 22.092 C 7.053 22.539 7.87 22.597 8.543 22.244 L 13.041 19.879 L 17.539 22.244 C 17.831 22.398 18.151 22.474 18.47 22.474 C 18.885 22.474 19.297 22.345 19.646 22.092 C 20.262 21.644 20.57 20.886 20.441 20.135 L 19.582 15.127 L 23.221 11.58 C 23.766 11.049 23.962 10.254 23.727 9.53 C 23.492 8.806 22.866 8.279 22.113 8.169 L 17.085 7.439 L 14.835 2.882 C 14.498 2.199 13.803 1.767 13.042 1.767 C 12.281 1.767 11.585 2.2 11.249 2.882 L 9 7.439 L 3.971 8.169 C 3.218 8.279 2.592 8.806 2.357 9.53 C 2.122 10.254 2.317 11.049 2.863 11.58 L 6.501 15.127 L 6.501 15.127 Z  M 10.616 11.246 C 11.267 11.152 11.83 10.743 12.122 10.152 L 13.043 8.286 L 13.964 10.152 C 14.256 10.742 14.818 11.152 15.47 11.246 L 17.528 11.545 L 16.039 12.997 C 15.568 13.456 15.352 14.119 15.464 14.768 L 15.816 16.818 L 13.975 15.85 C 13.684 15.697 13.364 15.62 13.044 15.62 C 12.724 15.62 12.404 15.697 12.113 15.85 L 10.272 16.818 L 10.624 14.768 C 10.735 14.119 10.52 13.457 10.049 12.997 L 8.56 11.545 L 10.616 11.246 L 10.616 11.246 Z " fill="rgb(229,229,229)"/><path d=" M 21.473 86.351 L 16.734 83.758 L 14.141 79.019 C 13.79 78.377 13.118 77.979 12.387 77.979 C 11.656 77.979 10.983 78.377 10.633 79.019 L 8.04 83.758 L 3.301 86.351 C 2.66 86.703 2.261 87.374 2.261 88.106 C 2.261 88.838 2.66 89.509 3.301 89.861 L 8.04 92.454 L 10.633 97.193 C 10.984 97.835 11.656 98.233 12.387 98.233 C 13.118 98.233 13.791 97.835 14.141 97.193 L 16.734 92.454 L 21.473 89.861 C 22.114 89.509 22.513 88.838 22.513 88.106 C 22.513 87.374 22.114 86.702 21.473 86.351 Z  M 14.3 89.225 C 13.965 89.409 13.689 89.685 13.506 90.02 L 12.386 92.066 L 11.266 90.02 C 11.083 89.685 10.807 89.409 10.472 89.225 L 8.426 88.106 L 10.472 86.987 C 10.807 86.803 11.083 86.527 11.266 86.192 L 12.386 84.146 L 13.506 86.192 C 13.689 86.527 13.965 86.803 14.3 86.987 L 16.346 88.106 L 14.3 89.225 L 14.3 89.225 Z " fill="rgb(229,229,229)"/><path d=" M 96.701 10.367 L 91.962 7.774 L 89.369 3.034 C 89.017 2.393 88.346 1.994 87.614 1.994 C 86.882 1.994 86.211 2.393 85.859 3.034 L 83.266 7.774 L 78.526 10.366 C 77.884 10.717 77.486 11.39 77.486 12.121 C 77.486 12.852 77.884 13.525 78.526 13.876 L 83.266 16.468 L 85.859 21.208 C 86.211 21.849 86.882 22.248 87.614 22.248 C 88.346 22.248 89.017 21.849 89.369 21.208 L 91.962 16.468 L 96.701 13.875 C 97.343 13.524 97.741 12.852 97.741 12.121 C 97.741 11.39 97.343 10.717 96.701 10.367 Z  M 89.528 13.24 C 89.193 13.423 88.917 13.699 88.733 14.034 L 87.614 16.08 L 86.495 14.034 C 86.311 13.699 86.035 13.423 85.7 13.239 L 83.654 12.12 L 85.7 11.001 C 86.035 10.817 86.311 10.542 86.495 10.206 L 87.614 8.16 L 88.733 10.206 C 88.917 10.541 89.193 10.817 89.528 11 L 91.574 12.119 L 89.528 13.24 L 89.528 13.24 Z " fill="rgb(229,229,229)"/><path d=" M 43.251 14.395 C 46.732 14.395 49.564 11.563 49.564 8.082 C 49.564 4.601 46.732 1.769 43.251 1.769 C 39.769 1.769 36.937 4.601 36.937 8.082 C 36.937 11.563 39.769 14.395 43.251 14.395 Z  M 43.251 5.768 C 44.527 5.768 45.564 6.806 45.564 8.081 C 45.564 9.356 44.526 10.394 43.251 10.394 C 41.975 10.394 40.937 9.356 40.937 8.081 C 40.937 6.806 41.975 5.768 43.251 5.768 Z " fill="rgb(229,229,229)"/><path d=" M 79.486 77.979 C 76.005 77.979 73.173 80.811 73.173 84.292 C 73.173 87.773 76.005 90.606 79.486 90.606 C 82.967 90.606 85.799 87.773 85.799 84.292 C 85.799 80.811 82.968 77.979 79.486 77.979 Z  M 79.486 86.607 C 78.211 86.607 77.173 85.569 77.173 84.293 C 77.173 83.018 78.211 81.98 79.486 81.98 C 80.761 81.98 81.799 83.018 81.799 84.293 C 81.8 85.569 80.762 86.607 79.486 86.607 Z " fill="rgb(229,229,229)"/></g></svg>