<svg height='100px' width='100px'  fill="#1A1A1A" xmlns="http://www.w3.org/2000/svg" xmlns:xlink="http://www.w3.org/1999/xlink" version="1.1" x="0px" y="0px" viewBox="0 0 100 100" enable-background="new 0 0 100 100" xml:space="preserve"><path d="M9.588,66.824c0.123,0.022,0.244,0.033,0.364,0.033c0.946,0,1.788-0.674,1.964-1.639  c1.668-9.075,8.548-19.985,18.402-29.183c7.895-7.37,16.71-12.761,24.822-15.18c7.636-2.277,13.614-1.631,16.832,1.816  c6.068,6.501,1.175,21.87-11.382,35.748c-0.741,0.819-0.678,2.084,0.142,2.825c0.819,0.74,2.083,0.678,2.825-0.142  c14.191-15.685,18.96-32.996,11.339-41.161c-4.311-4.617-11.729-5.655-20.899-2.92c-8.691,2.592-18.07,8.306-26.408,16.089  C17.13,42.874,9.801,54.606,7.983,64.496C7.784,65.582,8.502,66.625,9.588,66.824z"></path><path d="M91.768,38.272c-1.065-0.291-2.165,0.334-2.458,1.399c-2.373,8.643-8.877,18.4-17.845,26.772  C55.785,81.079,36.71,87.195,29.811,79.808c-6.899-7.393,0.519-26.001,16.197-40.635c0.808-0.753,0.851-2.019,0.097-2.827  s-2.019-0.851-2.827-0.097C25.42,52.918,18.22,73.25,26.887,82.537c2.796,2.995,6.85,4.422,11.662,4.422  c10.105,0,23.547-6.298,35.646-17.591c9.493-8.862,16.409-19.301,18.973-28.638C93.459,39.666,92.833,38.565,91.768,38.272z"></path><path d="M6.501,15.127l-0.859,5.008c-0.129,0.75,0.18,1.509,0.795,1.957c0.616,0.447,1.433,0.505,2.106,0.152l4.498-2.365  l4.498,2.365c0.292,0.154,0.612,0.23,0.931,0.23c0.415,0,0.827-0.129,1.176-0.382c0.616-0.448,0.924-1.206,0.795-1.957l-0.859-5.008  l3.639-3.547c0.545-0.531,0.741-1.326,0.506-2.05c-0.235-0.724-0.861-1.251-1.614-1.361l-5.028-0.73l-2.25-4.557  c-0.337-0.683-1.032-1.115-1.793-1.115S11.585,2.2,11.249,2.882L9,7.439l-5.029,0.73C3.218,8.279,2.592,8.806,2.357,9.53  c-0.235,0.724-0.04,1.519,0.506,2.05L6.501,15.127z M10.616,11.246c0.651-0.094,1.214-0.503,1.506-1.094l0.921-1.866l0.921,1.866  c0.292,0.59,0.854,1,1.506,1.094l2.058,0.299l-1.489,1.452c-0.471,0.459-0.687,1.122-0.575,1.771l0.352,2.05l-1.841-0.968  c-0.291-0.153-0.611-0.23-0.931-0.23s-0.64,0.077-0.931,0.23l-1.841,0.968l0.352-2.05c0.111-0.649-0.104-1.311-0.575-1.771  l-1.489-1.452L10.616,11.246z"></path><path d="M21.473,86.351l-4.739-2.593l-2.593-4.739c-0.351-0.642-1.023-1.04-1.754-1.04s-1.404,0.398-1.754,1.04l-2.593,4.739  l-4.739,2.593c-0.641,0.352-1.04,1.023-1.04,1.755s0.399,1.403,1.04,1.755l4.739,2.593l2.593,4.739  c0.351,0.642,1.023,1.04,1.754,1.04s1.404-0.398,1.754-1.04l2.593-4.739l4.739-2.593c0.641-0.352,1.04-1.023,1.04-1.755  S22.114,86.702,21.473,86.351z M14.3,89.225c-0.335,0.184-0.611,0.46-0.794,0.795l-1.12,2.046l-1.12-2.046  c-0.183-0.335-0.459-0.611-0.794-0.795l-2.046-1.119l2.046-1.119c0.335-0.184,0.611-0.46,0.794-0.795l1.12-2.046l1.12,2.046  c0.183,0.335,0.459,0.611,0.794,0.795l2.046,1.119L14.3,89.225z"></path><path d="M96.701,10.367l-4.739-2.593l-2.593-4.74c-0.352-0.641-1.023-1.04-1.755-1.04s-1.403,0.399-1.755,1.04l-2.593,4.74  l-4.74,2.592c-0.642,0.351-1.04,1.024-1.04,1.755s0.398,1.404,1.04,1.755l4.74,2.592l2.593,4.74c0.352,0.641,1.023,1.04,1.755,1.04  s1.403-0.399,1.755-1.04l2.593-4.74l4.739-2.593c0.642-0.351,1.04-1.023,1.04-1.754S97.343,10.717,96.701,10.367z M89.528,13.24  c-0.335,0.183-0.611,0.459-0.795,0.794l-1.119,2.046l-1.119-2.046c-0.184-0.335-0.46-0.611-0.795-0.795l-2.046-1.119l2.046-1.119  c0.335-0.184,0.611-0.459,0.795-0.795l1.119-2.046l1.119,2.046c0.184,0.335,0.46,0.611,0.795,0.794l2.046,1.119L89.528,13.24z"></path><path d="M43.251,14.395c3.481,0,6.313-2.832,6.313-6.313s-2.832-6.313-6.313-6.313c-3.482,0-6.314,2.832-6.314,6.313  S39.769,14.395,43.251,14.395z M43.251,5.768c1.276,0,2.313,1.038,2.313,2.313s-1.038,2.313-2.313,2.313  c-1.276,0-2.314-1.038-2.314-2.313S41.975,5.768,43.251,5.768z"></path><path d="M79.486,77.979c-3.481,0-6.313,2.832-6.313,6.313s2.832,6.314,6.313,6.314s6.313-2.833,6.313-6.314  S82.968,77.979,79.486,77.979z M79.486,86.607c-1.275,0-2.313-1.038-2.313-2.314c0-1.275,1.038-2.313,2.313-2.313  s2.313,1.038,2.313,2.313C81.8,85.569,80.762,86.607,79.486,86.607z"></path></svg>