<?xml version="1.0" encoding="UTF-8" standalone="no"?><!-- Generator: Gravit.io --><svg xmlns="http://www.w3.org/2000/svg" xmlns:xlink="http://www.w3.org/1999/xlink" style="isolation:isolate" viewBox="0 0 24 24" width="24pt" height="24pt"><defs><clipPath id="_clipPath_tqJ389mxJ4p07G076o7A4nucEHtgvQWW"><rect width="24" height="24"/></clipPath></defs><g clip-path="url(#_clipPath_tqJ389mxJ4p07G076o7A4nucEHtgvQWW)"><path d=" M 0 0 L 24 0 L 24 24 L 0 24 L 0 0 Z " fill="none"/><path d=" M 12 2 C 6.48 2 2 6.48 2 12 C 2 17.52 6.48 22 12 22 C 17.52 22 22 17.52 22 12 C 22 6.48 17.52 2 12 2 Z  M 11 19.93 C 7.05 19.44 4 16.08 4 12 C 4 11.38 4.08 10.79 4.21 10.21 L 9 15 L 9 16 C 9 17.1 9.9 18 11 18 L 11 19.93 L 11 19.93 Z  M 17.9 17.39 C 17.64 16.58 16.9 16 16 16 L 15 16 L 15 13 C 15 12.45 14.55 12 14 12 L 8 12 L 8 10 L 10 10 C 10.55 10 11 9.55 11 9 L 11 7 L 13 7 C 14.1 7 15 6.1 15 5 L 15 4.59 C 17.93 5.78 20 8.65 20 12 C 20 14.08 19.2 15.97 17.9 17.39 Z " fill="rgb(229,229,229)"/></g></svg>