<?xml version="1.0" encoding="UTF-8" standalone="no"?><!-- Generator: Gravit.io --><svg xmlns="http://www.w3.org/2000/svg" xmlns:xlink="http://www.w3.org/1999/xlink" style="isolation:isolate" viewBox="0 0 24 24" width="24pt" height="24pt"><defs><clipPath id="_clipPath_vMS015uIWlh5GNvY9Kb2mC1YfksxdD27"><rect width="24" height="24"/></clipPath></defs><g clip-path="url(#_clipPath_vMS015uIWlh5GNvY9Kb2mC1YfksxdD27)"><path d=" M 0 0 L 24 0 L 24 24 L 0 24 L 0 0 Z " fill="none"/><path d=" M 16.5 12 C 17.88 12 18.99 10.88 18.99 9.5 C 18.99 8.12 17.88 7 16.5 7 C 15.12 7 14 8.12 14 9.5 C 14 10.88 15.12 12 16.5 12 Z  M 9 11 C 10.66 11 11.99 9.66 11.99 8 C 11.99 6.34 10.66 5 9 5 C 7.34 5 6 6.34 6 8 C 6 9.66 7.34 11 9 11 Z  M 16.5 14 C 14.67 14 11 14.92 11 16.75 L 11 19 L 22 19 L 22 16.75 C 22 14.92 18.33 14 16.5 14 Z  M 9 13 C 6.67 13 2 14.17 2 16.5 L 2 19 L 9 19 L 9 16.75 C 9 15.9 9.33 14.41 11.37 13.28 C 10.5 13.1 9.66 13 9 13 Z " fill="rgb(229,229,229)"/></g></svg>