<?xml version="1.0" encoding="UTF-8" standalone="no"?><!-- Generator: Gravit.io --><svg xmlns="http://www.w3.org/2000/svg" xmlns:xlink="http://www.w3.org/1999/xlink" style="isolation:isolate" viewBox="0 0 24 24" width="24pt" height="24pt"><defs><clipPath id="_clipPath_aTIzPeyavGZeoRu68lWYQBo9CEc76gVC"><rect width="24" height="24"/></clipPath></defs><g clip-path="url(#_clipPath_aTIzPeyavGZeoRu68lWYQBo9CEc76gVC)"><path d=" M 0 0 L 24 0 L 24 24 L 0 24 L 0 0 Z " fill="none"/><path d=" M 15 11 L 15 5 L 12 2 L 9 5 L 9 7 L 3 7 L 3 21 L 21 21 L 21 11 L 15 11 L 15 11 Z  M 7 19 L 5 19 L 5 17 L 7 17 L 7 19 L 7 19 Z  M 7 15 L 5 15 L 5 13 L 7 13 L 7 15 L 7 15 Z  M 7 11 L 5 11 L 5 9 L 7 9 L 7 11 L 7 11 Z  M 13 19 L 11 19 L 11 17 L 13 17 L 13 19 L 13 19 Z  M 13 15 L 11 15 L 11 13 L 13 13 L 13 15 L 13 15 Z  M 13 11 L 11 11 L 11 9 L 13 9 L 13 11 L 13 11 Z  M 13 7 L 11 7 L 11 5 L 13 5 L 13 7 L 13 7 Z  M 19 19 L 17 19 L 17 17 L 19 17 L 19 19 L 19 19 Z  M 19 15 L 17 15 L 17 13 L 19 13 L 19 15 L 19 15 Z " fill="rgb(229,229,229)"/></g></svg>