<?xml version="1.0" encoding="UTF-8" standalone="no"?><!-- Generator: Gravit.io --><svg xmlns="http://www.w3.org/2000/svg" xmlns:xlink="http://www.w3.org/1999/xlink" style="isolation:isolate" viewBox="0 0 24 24" width="24pt" height="24pt"><defs><clipPath id="_clipPath_WKK2HJPUsrJD8LwvVQTtTmp98aGfpE4H"><rect width="24" height="24"/></clipPath></defs><g clip-path="url(#_clipPath_WKK2HJPUsrJD8LwvVQTtTmp98aGfpE4H)"><path d=" M 0 0 L 24 0 L 24 24 L 0 24 L 0 0 Z " fill="none"/><path d=" M 19 3 L 5 3 C 3.9 3 3 3.9 3 5 L 3 19 C 3 20.1 3.9 21 5 21 L 19 21 C 20.1 21 21 20.1 21 19 L 21 5 C 21 3.9 20.1 3 19 3 Z  M 9 17 L 7 17 L 7 10 L 9 10 L 9 17 L 9 17 Z  M 13 17 L 11 17 L 11 7 L 13 7 L 13 17 L 13 17 Z  M 17 17 L 15 17 L 15 13 L 17 13 L 17 17 L 17 17 Z " fill="rgb(43,73,198)" vector-effect="non-scaling-stroke" stroke-width="1" stroke="rgb(229,229,229)" stroke-linejoin="miter" stroke-linecap="butt" stroke-miterlimit="4"/></g></svg>