<?xml version="1.0" encoding="UTF-8" standalone="no"?><!-- Generator: Gravit.io --><svg xmlns="http://www.w3.org/2000/svg" xmlns:xlink="http://www.w3.org/1999/xlink" style="isolation:isolate" viewBox="0 0 24 24" width="24pt" height="24pt"><defs><clipPath id="_clipPath_Zou9ygX8OMXslYiDExB5gZlmaTHAln5c"><rect width="24" height="24"/></clipPath></defs><g clip-path="url(#_clipPath_Zou9ygX8OMXslYiDExB5gZlmaTHAln5c)"><path d=" M 0 0 L 24 0 L 24 24 L 0 24 L 0 0 L 0 0 Z " fill="none"/><path d=" M 15 4 C 10.58 4 7 7.58 7 12 C 7 16.42 10.58 20 15 20 C 19.42 20 23 16.42 23 12 C 23 7.58 19.42 4 15 4 Z  M 15 18 C 11.69 18 9 15.31 9 12 C 9 8.69 11.69 6 15 6 C 18.31 6 21 8.69 21 12 C 21 15.31 18.31 18 15 18 Z " fill="rgb(229,229,229)"/><path d=" M 3 12 C 3 9.39 4.67 7.17 7 6.35 L 7 4.26 C 3.55 5.15 1 8.27 1 12 C 1 15.73 3.55 18.85 7 19.74 L 7 17.65 C 4.67 16.83 3 14.61 3 12 Z " fill="rgb(229,229,229)"/></g></svg>