<?xml version="1.0" encoding="UTF-8"?>
<svg width="50px" height="50px" viewBox="0 0 50 50" version="1.1" xmlns="http://www.w3.org/2000/svg" xmlns:xlink="http://www.w3.org/1999/xlink">
    <title>destroy</title>
    <defs>
        <rect id="path-1" x="0" y="0" width="50" height="50"></rect>
    </defs>
    <g id="Page-1" stroke="none" stroke-width="1" fill="none" fill-rule="evenodd">
        <g id="destroy">
            <mask id="mask-2" fill="white">
                <use xlink:href="#path-1"></use>
            </mask>
            <g id="Rectangle"></g>
            <path d="M18.474785,5.09195402 C18.4456979,5.14252874 18.3355522,5.18390805 18.2298978,5.18390805 C17.9811608,5.18390805 17.4054086,5.75057471 17.4054086,5.9954023 C17.4054086,6.09954023 17.3669111,6.21011494 17.3198585,6.24137931 C17.2728059,6.27264368 17.2343084,6.38344828 17.2343084,6.48758621 C17.2343084,6.59172414 17.1541052,6.95149425 17.0559364,7.28666667 C16.7488115,8.33770115 16.7210077,8.45517241 16.7210077,8.70229885 C16.7210077,8.83471264 16.6825102,8.96873563 16.6354576,9 C16.5884051,9.03126437 16.5499075,9.21747126 16.5499075,9.4137931 C16.5499075,9.61011494 16.5152597,9.7937931 16.4731263,9.82183908 C16.430779,9.84988506 16.3691829,10.1627586 16.3360322,10.5167816 C16.3028816,10.8710345 16.2412855,11.1609195 16.1989382,11.1609195 C16.1568048,11.1609195 16.122157,11.3057471 16.122157,11.4827586 C16.122157,11.6597701 16.0836594,11.8045977 16.0366069,11.8045977 C15.9895543,11.8045977 15.9510568,11.9675862 15.9510568,12.1668966 C15.9510568,12.3662069 15.9125592,12.5549425 15.8655066,12.5862069 C15.8184541,12.6174713 15.7799565,12.8268966 15.7799565,13.0514943 C15.7799565,13.276092 15.741459,13.4597701 15.6944064,13.4597701 C15.6473539,13.4597701 15.6088563,13.54 15.6088563,13.6381609 C15.6088563,13.7363218 15.5703588,13.8422989 15.5233062,13.8735632 C15.4762537,13.9048276 15.4377561,14.0703448 15.4377561,14.2413793 C15.4377561,14.4124138 15.3992586,14.577931 15.352206,14.6091954 C15.3051534,14.6404598 15.2666559,14.8209195 15.2666559,15.0101149 C15.2666559,15.6057471 15.5906769,15.5747126 9.38936342,15.5747126 C5.66515332,15.5747126 3.71739122,15.6062069 3.71739122,15.6666667 C3.71739122,15.7172414 3.60189857,15.7586207 3.46074089,15.7586207 C3.31958321,15.7586207 3.20409057,15.8 3.20409057,15.8505747 C3.20409057,15.9011494 3.15554088,15.9425287 3.09629743,15.9425287 C2.91985033,15.9425287 2.61593357,16.502069 2.44697211,17.137931 C2.3864454,17.3655172 2.3026063,17.6758621 2.26068674,17.8275862 C2.21876719,17.9793103 2.15824049,18.383908 2.1261592,18.7266667 C2.09407791,19.0694253 2.03483446,19.371954 1.99441203,19.3988506 C1.95398961,19.4257471 1.92083894,19.5462069 1.92083894,19.6666667 C1.92083894,19.7871264 1.88234139,19.9112644 1.83528883,19.9425287 C1.78823627,19.9737931 1.74973872,20.1418391 1.74973872,20.3158621 C1.74973872,20.4898851 1.71124117,20.6321839 1.66418861,20.6321839 C1.61713605,20.6321839 1.5786385,20.8158621 1.5786385,21.0404598 C1.5786385,21.2650575 1.54014095,21.4744828 1.49308839,21.5057471 C1.44603583,21.5370115 1.40753829,21.7257471 1.40753829,21.9250575 C1.40753829,22.1243678 1.36904074,22.2873563 1.32198818,22.2873563 C1.27493562,22.2873563 1.23643807,22.4296552 1.23643807,22.6036782 C1.23643807,22.7777011 1.19794052,22.9457471 1.15088796,22.9770115 C1.1038354,23.0082759 1.06533785,23.1349425 1.06533785,23.2583908 C1.06533785,23.3818391 1.0268403,23.4827586 0.979787743,23.4827586 C0.932735183,23.4827586 0.894237634,23.6482759 0.894237634,23.8505747 C0.894237634,24.0528736 0.855740085,24.2183908 0.808687526,24.2183908 C0.761634966,24.2183908 0.723137417,24.4252874 0.723137417,24.6781609 C0.723137417,24.9310345 0.684639868,25.137931 0.637587308,25.137931 C0.590534748,25.137931 0.5520372,25.3034483 0.5520372,25.5057471 C0.5520372,25.708046 0.513539651,25.8735632 0.466487091,25.8735632 C0.419434531,25.8735632 0.380936982,25.9636782 0.380936982,26.074023 C0.380936982,26.2855172 0.239779303,26.8225287 0.113806768,27.0908046 C-0.127444538,27.603908 0.0205571496,28.2404598 0.503701388,28.768046 L0.968666229,29.2758621 L17.2287476,29.2758621 C28.0116972,29.2758621 33.488829,29.3068966 33.488829,29.3678161 C33.488829,29.4183908 33.5630437,29.4597701 33.6537269,29.4597701 C33.7446239,29.4597701 33.8765849,29.5218391 33.9471637,29.5977011 C34.0177426,29.6735632 34.1167668,29.7356322 34.1670275,29.7356322 C34.2175021,29.7356322 34.25878,29.7770115 34.25878,29.8275862 C34.25878,29.8781609 34.3272201,29.9195402 34.4110592,29.9195402 C34.4946844,29.9195402 34.6187321,30.0022989 34.6865306,30.1034483 C34.754329,30.2045977 34.8698217,30.2873563 34.9431809,30.2873563 C35.0165401,30.2873563 35.1320327,30.3701149 35.1998312,30.4712644 C35.2676297,30.5724138 35.3831223,30.6551724 35.4564815,30.6551724 C35.5298407,30.6551724 35.6453334,30.737931 35.7131319,30.8390805 C35.7809303,30.9402299 35.904978,31.0229885 35.9886032,31.0229885 C36.0724423,31.0229885 36.1408824,31.0643678 36.1408824,31.1149425 C36.1408824,31.1655172 36.2093225,31.2068966 36.2931616,31.2068966 C36.3767868,31.2068966 36.5008345,31.2896552 36.5686329,31.3908046 C36.6364314,31.491954 36.751924,31.5747126 36.8252833,31.5747126 C36.8986425,31.5747126 37.0141351,31.6574713 37.0819336,31.7586207 C37.1497321,31.8597701 37.2596639,31.9425287 37.3259653,31.9425287 C37.3924805,31.9425287 37.5090425,32.0177011 37.5851821,32.1098851 C37.6613217,32.2018391 37.7879359,32.3027586 37.866642,32.334023 C38.0082274,32.3905747 37.9992446,32.6910345 37.8491042,32.908046 C37.8142425,32.9586207 37.758635,33.1758621 37.7256982,33.3908046 C37.6927614,33.6057471 37.6307375,33.7816092 37.5877486,33.7816092 C37.5447597,33.7816092 37.5096841,33.8825287 37.5096841,34.005977 C37.5096841,34.1294253 37.4711866,34.256092 37.424134,34.2873563 C37.3770815,34.3186207 37.3385839,34.528046 37.3385839,34.7526437 C37.3385839,34.9772414 37.3000864,35.1609195 37.2530338,35.1609195 C37.2055535,35.1609195 37.1674837,35.4062069 37.1674837,35.7126437 C37.1674837,36.0190805 37.1294139,36.2643678 37.0819336,36.2643678 C37.0303897,36.2643678 36.9963835,36.6457471 36.9963835,37.2243678 C36.9963835,37.7652874 37.0338117,38.2094253 37.0819336,38.2413793 C37.1289862,38.2726437 37.1674837,38.5027586 37.1674837,38.7526437 C37.1674837,39.0025287 37.2059813,39.2068966 37.2530338,39.2068966 C37.3000864,39.2068966 37.3385839,39.3517241 37.3385839,39.5287356 C37.3385839,39.7057471 37.3770815,39.8505747 37.424134,39.8505747 C37.4711866,39.8505747 37.5096841,39.9333333 37.5096841,40.0344828 C37.5096841,40.1356322 37.5439042,40.2183908 37.5856099,40.2183908 C37.6275294,40.2183908 37.6872006,40.3641379 37.7182125,40.5422989 C37.7494383,40.7204598 37.8499597,40.9165517 37.9417122,40.9781609 C38.0334647,41.0397701 38.1085349,41.1429885 38.1085349,41.2073563 C38.1085349,41.3611494 39.5278112,42.8850575 39.6711076,42.8850575 C39.7320621,42.8850575 39.8372887,42.9678161 39.9050872,43.0689655 C39.9728856,43.1701149 40.0969333,43.2528736 40.1805585,43.2528736 C40.2643976,43.2528736 40.3328377,43.2942529 40.3328377,43.3448276 C40.3328377,43.3954023 40.4098328,43.4367816 40.5039379,43.4367816 C40.5980431,43.4367816 40.6750382,43.4781609 40.6750382,43.5287356 C40.6750382,43.5793103 40.7520333,43.6206897 40.8461384,43.6206897 C40.9402435,43.6206897 41.0172386,43.662069 41.0172386,43.7126437 C41.0172386,43.7632184 41.0942337,43.8045977 41.1883388,43.8045977 C41.2824439,43.8045977 41.359439,43.845977 41.359439,43.8965517 C41.359439,43.9471264 41.4556829,43.9885057 41.5733143,43.9885057 C41.6909457,43.9885057 41.7871896,44.0298851 41.7871896,44.0804598 C41.7871896,44.1310345 41.8810808,44.1724138 41.9959318,44.1724138 C42.1107829,44.1724138 42.2286281,44.2137931 42.2577152,44.2643678 C42.2868022,44.3149425 42.4215436,44.3563218 42.5571405,44.3563218 C42.6927375,44.3563218 42.8274789,44.3977011 42.8565659,44.4482759 C42.885653,44.4988506 43.0342963,44.5402299 43.1867893,44.5402299 C43.3392824,44.5402299 43.5005444,44.5795402 43.5454582,44.6278161 C43.590372,44.676092 44.0420766,44.7441379 44.5491748,44.7795402 C45.056487,44.8147126 45.4917231,44.8788506 45.5165327,44.9218391 C45.5413422,44.9648276 46.560244,45 47.7808302,45 L50,45 L50,44.6781609 C50,44.5011494 49.9615025,44.3563218 49.9144499,44.3563218 C49.8673973,44.3563218 49.8288998,44.2321839 49.8288998,44.0804598 C49.8288998,43.9287356 49.7904022,43.8045977 49.7433497,43.8045977 C49.6962971,43.8045977 49.6577996,43.6804598 49.6577996,43.5287356 C49.6577996,43.3770115 49.619302,43.2528736 49.5722495,43.2528736 C49.5251969,43.2528736 49.4866993,43.1287356 49.4866993,42.9770115 C49.4866993,42.8252874 49.4482018,42.7011494 49.4011492,42.7011494 C49.3540967,42.7011494 49.3155991,42.5770115 49.3155991,42.4252874 C49.3155991,42.2735632 49.2771016,42.1494253 49.230049,42.1494253 C49.1829965,42.1494253 49.1444989,42.0252874 49.1444989,41.8735632 C49.1444989,41.7218391 49.1060014,41.5977011 49.0589488,41.5977011 C49.0118962,41.5977011 48.9733987,41.4942529 48.9733987,41.3678161 C48.9733987,41.2413793 48.9349011,41.137931 48.8878486,41.137931 C48.840796,41.137931 48.8022985,41.0137931 48.8022985,40.862069 C48.8022985,40.7103448 48.7638009,40.5862069 48.7167484,40.5862069 C48.6696958,40.5862069 48.6311983,40.462069 48.6311983,40.3103448 C48.6311983,40.1586207 48.5927007,40.0344828 48.5456482,40.0344828 C48.4985956,40.0344828 48.460098,39.9103448 48.460098,39.7586207 C48.460098,39.6068966 48.4216005,39.4827586 48.3745479,39.4827586 C48.3274954,39.4827586 48.2889978,39.3586207 48.2889978,39.2068966 C48.2889978,39.0551724 48.2549917,38.9310345 48.213286,38.9310345 C48.1715803,38.9310345 48.1112675,38.7041379 48.0789723,38.4266667 C48.0466771,38.1494253 47.9846533,37.8986207 47.9408089,37.8696552 C47.8969645,37.8404598 47.8612473,37.7156322 47.8612473,37.5921839 C47.8612473,37.4687356 47.8227497,37.3678161 47.7756972,37.3678161 C47.7286446,37.3678161 47.6901471,37.2436782 47.6901471,37.091954 C47.6901471,36.9402299 47.6516495,36.816092 47.604597,36.816092 C47.5575444,36.816092 47.5190468,36.691954 47.5190468,36.5402299 C47.5190468,36.3885057 47.4805493,36.2643678 47.4334967,36.2643678 C47.3864442,36.2643678 47.3479466,36.1402299 47.3479466,35.9885057 C47.3479466,35.8367816 47.3094491,35.7126437 47.2623965,35.7126437 C47.215344,35.7126437 47.1768464,35.5885057 47.1768464,35.4367816 C47.1768464,35.2850575 47.1383489,35.1609195 47.0912963,35.1609195 C47.0442437,35.1609195 47.0057462,35.0367816 47.0057462,34.8850575 C47.0057462,34.7333333 46.9672486,34.6091954 46.9201961,34.6091954 C46.8731435,34.6091954 46.834646,34.5082759 46.834646,34.3848276 C46.834646,34.2613793 46.7961484,34.1347126 46.7490959,34.1034483 C46.7020433,34.0721839 46.6635458,33.9455172 46.6635458,33.822069 C46.6635458,33.6986207 46.6250482,33.5977011 46.5779957,33.5977011 C46.5309431,33.5977011 46.4924455,33.4735632 46.4924455,33.3218391 C46.4924455,33.1701149 46.453948,33.045977 46.4068954,33.045977 C46.3598429,33.045977 46.3213453,32.9218391 46.3213453,32.7701149 C46.3213453,32.6183908 46.2828478,32.4942529 46.2357952,32.4942529 C46.1887427,32.4942529 46.1502451,32.3701149 46.1502451,32.2183908 C46.1502451,32.0666667 46.1117476,31.9425287 46.064695,31.9425287 C46.0176424,31.9425287 45.9791449,31.8183908 45.9791449,31.6666667 C45.9791449,31.5149425 45.9406473,31.3908046 45.8935948,31.3908046 C45.8465422,31.3908046 45.8080447,31.2666667 45.8080447,31.1149425 C45.8080447,30.9632184 45.7695471,30.8390805 45.7224946,30.8390805 C45.675442,30.8390805 45.6369445,30.7149425 45.6369445,30.5632184 C45.6369445,30.4114943 45.5984469,30.2873563 45.5513944,30.2873563 C45.5043418,30.2873563 45.4658442,30.183908 45.4658442,30.0574713 C45.4658442,29.9310345 45.4273467,29.8275862 45.3802941,29.8275862 C45.3332416,29.8275862 45.294744,29.7034483 45.294744,29.5517241 C45.294744,29.4 45.2562465,29.2758621 45.2091939,29.2758621 C45.1621414,29.2758621 45.1236438,29.1517241 45.1236438,29 C45.1236438,28.8482759 45.0851463,28.7241379 45.0380937,28.7241379 C44.9910411,28.7241379 44.9525436,28.6 44.9525436,28.4482759 C44.9525436,28.2965517 44.914046,28.1724138 44.8669935,28.1724138 C44.8199409,28.1724138 44.7814434,28.0482759 44.7814434,27.8965517 C44.7814434,27.7448276 44.7429458,27.6206897 44.6958933,27.6206897 C44.6488407,27.6206897 44.6103432,27.4965517 44.6103432,27.3448276 C44.6103432,27.1931034 44.576337,27.0689655 44.5346313,27.0689655 C44.4929256,27.0689655 44.4323989,26.8413793 44.4001038,26.5632184 C44.3678086,26.2850575 44.3055709,26.0574713 44.2619403,26.0574713 C44.2183098,26.0574713 44.1825926,25.9333333 44.1825926,25.7816092 C44.1825926,25.5363218 44.1541472,25.5057471 43.9259423,25.5057471 C43.7847846,25.5057471 43.669292,25.5471264 43.669292,25.5977011 C43.669292,25.6482759 43.6064126,25.6896552 43.5296314,25.6896552 C43.4528502,25.6896552 43.3277332,25.765977 43.2515936,25.8595402 C43.175454,25.9528736 43.0101284,26.0873563 42.8841558,26.1583908 C42.3950231,26.4337931 40.1617375,28.6974713 40.1617375,28.9177011 C40.1617375,28.9731034 40.0462449,29.134023 39.9050872,29.2758621 C39.7639295,29.4177011 39.6484369,29.5997701 39.6484369,29.6804598 C39.6484369,29.8878161 39.3680464,29.8634483 39.2206863,29.6436782 C39.1528878,29.5425287 39.0288402,29.4597701 38.945215,29.4597701 C38.8613759,29.4597701 38.7929358,29.4183908 38.7929358,29.3678161 C38.7929358,29.3172414 38.7244957,29.2758621 38.6406566,29.2758621 C38.5570313,29.2758621 38.4329837,29.1931034 38.3651852,29.091954 C38.2973868,28.9908046 38.1818941,28.908046 38.1085349,28.908046 C38.0351757,28.908046 37.919683,28.8252874 37.8518846,28.7241379 C37.7840861,28.6229885 37.6685935,28.5402299 37.5952342,28.5402299 C37.521875,28.5402299 37.4063824,28.4574713 37.3385839,28.3563218 C37.2707855,28.2551724 37.1659866,28.1724138 37.1058876,28.1724138 C37.0455748,28.1724138 36.9963835,28.1310345 36.9963835,28.0804598 C36.9963835,28.0298851 36.9279434,27.9885057 36.8441043,27.9885057 C36.7604791,27.9885057 36.6364314,27.9057471 36.5686329,27.8045977 C36.5008345,27.7034483 36.3853418,27.6206897 36.3119826,27.6206897 C36.2386234,27.6206897 36.1231308,27.537931 36.0553323,27.4367816 C35.9875338,27.3356322 35.8812378,27.2528736 35.8190001,27.2528736 C35.7567624,27.2528736 35.6233042,27.1701149 35.5223551,27.0689655 C35.421406,26.9678161 35.2881617,26.8850575 35.2265656,26.8850575 C35.1647557,26.8850575 35.1142811,26.8436782 35.1142811,26.7931034 C35.1142811,26.7425287 35.037286,26.7011494 34.9431809,26.7011494 C34.8187055,26.7011494 34.7720807,26.6397701 34.7720807,26.4767816 C34.7720807,26.3533333 34.7335831,26.2266667 34.6865306,26.1954023 C34.639478,26.1641379 34.6009804,25.7891954 34.6009804,25.3622989 C34.6009804,24.9062069 34.565691,24.5862069 34.5154303,24.5862069 C34.4643141,24.5862069 34.4298802,24.2337931 34.4298802,23.7126437 C34.4298802,23.1914943 34.3954463,22.8390805 34.3443301,22.8390805 C34.2962082,22.8390805 34.25878,22.5804598 34.25878,22.2468966 C34.25878,21.9211494 34.2202825,21.6289655 34.1732299,21.5977011 C34.1261773,21.5664368 34.0876798,21.2949425 34.0876798,20.9944828 C34.0876798,20.6917241 34.04961,20.4482759 34.0021297,20.4482759 C33.9522967,20.4482759 33.9165796,20.1418391 33.9165796,19.7126437 C33.9165796,19.308046 33.8840705,18.9770115 33.8442897,18.9770115 C33.8045089,18.9770115 33.746121,18.3873563 33.7146813,17.6666667 C33.6830278,16.945977 33.5955528,16.0045977 33.5202687,15.5747126 C33.4449846,15.1448276 33.3658507,14.4827586 33.3442493,14.1034483 C33.3226479,13.7241379 33.2691791,13.3744828 33.2257624,13.3264368 C33.1821319,13.2783908 33.1466286,12.9188506 33.1466286,12.5273563 C33.1466286,12.1358621 33.108131,11.7898851 33.0610785,11.7586207 C33.0140259,11.7273563 32.9755284,11.3317241 32.9755284,10.8795402 C32.9755284,10.3928736 32.9406667,10.0574713 32.8899783,10.0574713 C32.8416425,10.0574713 32.8044282,9.79517241 32.8044282,9.45425287 C32.8044282,9.12252874 32.775555,8.87011494 32.7402656,8.89333333 C32.7049762,8.91655172 32.6636982,8.63954023 32.648727,8.27793103 C32.6337557,7.91655172 32.5856338,7.60689655 32.5417893,7.59011494 C32.4979449,7.57310345 32.4622277,7.25494253 32.4622277,6.88275862 C32.4622277,6.5108046 32.4237302,6.18068966 32.3766776,6.14942529 C32.3296251,6.11816092 32.2911275,6.03149425 32.2911275,5.95701149 C32.2911275,5.72965517 31.7194389,5.18390805 31.4811819,5.18390805 C31.3620533,5.18390805 31.2645262,5.14252874 31.2645262,5.09195402 C31.2645262,5.03149425 29.0847094,5 24.8961761,5 C20.7427183,5 18.5092189,5.03195402 18.474785,5.09195402 Z M29.0095238,9.11078799 C29.0696599,9.16876651 29.1156463,9.44608287 29.1156463,9.75025693 C29.1156463,10.0456916 29.1521259,10.2874108 29.1965646,10.2874108 C29.2410034,10.2874108 29.3006973,10.5368037 29.3292177,10.8416172 C29.3577381,11.1464308 29.4041667,11.6452165 29.4326871,11.9500301 C29.4612075,12.2548436 29.5209014,12.5042365 29.5653401,12.5042365 C29.6097789,12.5042365 29.6462585,12.8111816 29.6462585,13.1863367 C29.6462585,13.5842995 29.6831803,13.8684369 29.7346939,13.8684369 C29.7857653,13.8684369 29.8231293,14.1385059 29.8231293,14.5079058 C29.8231293,14.8773057 29.8604932,15.1473748 29.9115646,15.1473748 C29.9602041,15.1473748 30,15.3392154 30,15.5736874 L30,16 L23.5,16 L17,16 L17,15.7442124 C17,15.6035293 17.0397959,15.4884249 17.0884354,15.4884249 C17.1370748,15.4884249 17.1768707,15.3756652 17.1768707,15.237753 C17.1768707,15.0998409 17.2166667,14.9632077 17.2653061,14.9342184 C17.3139456,14.9052292 17.3537415,14.7517566 17.3537415,14.5931683 C17.3537415,14.43458 17.3935374,14.2811075 17.4421769,14.2521182 C17.4908163,14.223129 17.5306122,14.0696564 17.5306122,13.9110681 C17.5306122,13.7524798 17.5704082,13.5990073 17.6190476,13.570018 C17.6676871,13.5410288 17.707483,13.3875562 17.707483,13.2289679 C17.707483,13.0703796 17.7428571,12.919465 17.7861905,12.8936731 C17.8293027,12.8678812 17.8854592,12.7218691 17.9106633,12.569036 C17.9356463,12.4162029 18.0030782,12.1376076 18.0603401,11.9500301 C18.117381,11.7624525 18.1859184,11.4938756 18.2122279,11.3531924 C18.2387585,11.2125092 18.2907143,11.0590367 18.3278571,11.0121423 C18.365,10.9652479 18.4235884,10.6487108 18.4582993,10.3087265 C18.4930102,9.96874215 18.5571259,9.69057316 18.6009014,9.69057316 C18.6444558,9.69057316 18.6802721,9.58314238 18.6802721,9.45183809 C18.6802721,9.3205338 18.7280272,9.16706126 18.7863946,9.11078799 C18.9396088,8.96307067 28.8563095,8.96307067 29.0095238,9.11078799 Z M5.08333333,32.0890514 C5.08333333,32.1380297 4.93333333,32.1781028 4.75,32.1781028 C4.56666667,32.1781028 4.41666667,32.2181759 4.41666667,32.2671542 C4.41666667,32.3161324 4.30416667,32.3562056 4.16666667,32.3562056 C4.02916667,32.3562056 3.91666667,32.3962787 3.91666667,32.4452569 C3.91666667,32.4942352 3.80416667,32.5343083 3.66666667,32.5343083 C3.52916667,32.5343083 3.41666667,32.5743815 3.41666667,32.6233597 C3.41666667,32.672338 3.34166667,32.7124111 3.25,32.7124111 C3.15833333,32.7124111 3.08333333,32.7524842 3.08333333,32.8014625 C3.08333333,32.8504408 3.03416667,32.8905139 2.97395833,32.8905139 C2.91395833,32.8905139 2.78416667,32.9706601 2.68583333,33.0686167 C2.5875,33.1665732 2.48583333,33.2467194 2.46,33.2467194 C2.43416667,33.2467194 2.206875,33.4671216 1.95479167,33.7365021 C1.70270833,34.0058825 1.46604167,34.2262847 1.42895833,34.2262847 C1.391875,34.2262847 1.30854167,34.3364858 1.24375,34.471176 C1.17916667,34.6058663 1.06020833,34.7808522 0.979791667,34.860108 C0.899166667,34.9393637 0.833333333,35.0696014 0.833333333,35.149525 C0.833333333,35.2294486 0.795833333,35.2949014 0.75,35.2949014 C0.704166667,35.2949014 0.666666667,35.3750476 0.666666667,35.4730042 C0.666666667,35.5709607 0.629166667,35.6511069 0.583333333,35.6511069 C0.5375,35.6511069 0.5,35.7312532 0.5,35.8292097 C0.5,35.9271662 0.4625,36.0073125 0.416666667,36.0073125 C0.370833333,36.0073125 0.333333333,36.1275319 0.333333333,36.2744667 C0.333333333,36.4214014 0.295833333,36.5416208 0.25,36.5416208 C0.204166667,36.5416208 0.166666667,36.7019133 0.166666667,36.8978264 C0.166666667,37.0937394 0.129166667,37.2540319 0.0833333333,37.2540319 C0.0316666667,37.2540319 0,37.7271174 0,38.4954083 C0,39.2271881 0.0341666667,39.7594927 0.0833333333,39.7919965 C0.129166667,39.822274 0.166666667,40.005052 0.166666667,40.1980708 C0.166666667,40.3910897 0.204166667,40.5489333 0.25,40.5489333 C0.295833333,40.5489333 0.333333333,40.6691527 0.333333333,40.8160875 C0.333333333,40.9630223 0.370833333,41.0832416 0.416666667,41.0832416 C0.4625,41.0832416 0.5,41.1433513 0.5,41.2168187 C0.5,41.2902861 0.5375,41.3503958 0.583333333,41.3503958 C0.629166667,41.3503958 0.666666667,41.4305421 0.666666667,41.5284986 C0.666666667,41.6264551 0.704166667,41.7066014 0.75,41.7066014 C0.795833333,41.7066014 0.833333333,41.7778425 0.833333333,41.8651128 C0.833333333,41.9521606 0.908333333,42.0812851 1,42.1518583 C1.09166667,42.2224315 1.16666667,42.3321874 1.16666667,42.3956365 C1.16666667,42.5067281 2.36333333,43.8438347 2.46270833,43.8438347 C2.48958333,43.8438347 2.66833333,43.9584884 2.86,44.098299 C3.05166667,44.2383323 3.35833333,44.4070847 3.54166667,44.4732054 C3.725,44.539326 3.91625,44.625038 3.966875,44.6637754 C4.01729167,44.7025127 4.29041667,44.7601735 4.57354167,44.7917867 C4.856875,44.8234 5.10833333,44.8835097 5.1325,44.9253638 C5.19,45.0248787 29.8333333,45.0248787 29.8333333,44.9253638 C29.8333333,44.8835097 30.08375,44.8240679 30.39,44.7935677 C30.6960417,44.7630676 30.9847917,44.6971696 31.0316667,44.6470782 C31.0783333,44.5972094 31.1841667,44.5562458 31.2666667,44.5562458 C31.3491667,44.5562458 31.4166667,44.5161727 31.4166667,44.4671944 C31.4166667,44.4182161 31.4916667,44.378143 31.5833333,44.378143 C31.675,44.378143 31.75,44.3380699 31.75,44.2890916 C31.75,44.2401134 31.825,44.2000402 31.9166667,44.2000402 C32.0083333,44.2000402 32.0833333,44.1599671 32.0833333,44.1109889 C32.0833333,44.0620106 32.15,44.0219375 32.2316667,44.0219375 C32.313125,44.0219375 32.4339583,43.9417912 32.5,43.8438347 C32.5660417,43.7458782 32.65875,43.6655093 32.7058333,43.6652867 C32.85875,43.6646188 33.5,42.9417441 33.5,42.7700976 C33.5,42.7142178 33.6125,42.5563742 33.75,42.4190125 C33.8875,42.2816507 34,42.105329 34,42.0271864 C34,41.9488211 34.0375,41.8847041 34.0833333,41.8847041 C34.1291667,41.8847041 34.1666667,41.813463 34.1666667,41.7261927 C34.1666667,41.6391449 34.2416667,41.5100204 34.3333333,41.4394472 C34.425,41.368874 34.5,41.2397495 34.5,41.1527017 C34.5,41.0654314 34.5375,40.9941903 34.5833333,40.9941903 C34.6291667,40.9941903 34.6666667,40.8539343 34.6666667,40.6825104 C34.6666667,40.5110865 34.7041667,40.3708305 34.75,40.3708305 C34.7958333,40.3708305 34.8333333,40.1704649 34.8333333,39.9255736 C34.8333333,39.6806823 34.8708333,39.4803166 34.9166667,39.4803166 C34.966875,39.4803166 35,39.109195 35,38.5452771 C35,37.9813591 34.966875,37.6102375 34.9166667,37.6102375 C34.8708333,37.6102375 34.8333333,37.4098719 34.8333333,37.1649805 C34.8333333,36.9200892 34.7958333,36.7197236 34.75,36.7197236 C34.7041667,36.7197236 34.6666667,36.5594311 34.6666667,36.363518 C34.6666667,36.167605 34.6291667,36.0073125 34.5833333,36.0073125 C34.5375,36.0073125 34.5,35.9271662 34.5,35.8292097 C34.5,35.7312532 34.4625,35.6511069 34.4166667,35.6511069 C34.3708333,35.6511069 34.3333333,35.5985666 34.3333333,35.534227 C34.3333333,35.47011 34.2583333,35.3314124 34.1666667,35.2263318 C34.075,35.1212512 34,34.982331 34,34.9175461 C34,34.8527612 33.925,34.7421149 33.8333333,34.6715417 C33.7416667,34.6009684 33.6666667,34.510136 33.6666667,34.4698403 C33.6666667,34.4293219 33.5822917,34.30042 33.4791667,34.1833174 C33.3760417,34.0662148 33.1979167,33.8487068 33.0833333,33.7002136 C32.96875,33.5517204 32.8177083,33.4290522 32.7475,33.4274938 C32.6775,33.4259354 32.5660417,33.344676 32.5,33.2467194 C32.4339583,33.1487629 32.3304167,33.0686167 32.2697917,33.0686167 C32.2091667,33.0686167 32.0791667,32.9884704 31.9808333,32.8905139 C31.8825,32.7925574 31.7152083,32.7124111 31.609375,32.7124111 C31.5033333,32.7124111 31.4166667,32.672338 31.4166667,32.6233597 C31.4166667,32.5743815 31.3416667,32.5343083 31.25,32.5343083 C31.1583333,32.5343083 31.0833333,32.4942352 31.0833333,32.4452569 C31.0833333,32.3962787 30.9708333,32.3562056 30.8333333,32.3562056 C30.6958333,32.3562056 30.5833333,32.3161324 30.5833333,32.2671542 C30.5833333,32.2181759 30.4333333,32.1781028 30.25,32.1781028 C30.0666667,32.1781028 29.9166667,32.1380297 29.9166667,32.0890514 C29.9166667,32.0300548 25.7222917,32 17.5,32 C9.27770833,32 5.08333333,32.0300548 5.08333333,32.0890514 Z" id="Shape" stroke="#FFFFFF" stroke-width="0.625" fill="#1C1C1C" mask="url(#mask-2)"></path>
        </g>
    </g>
</svg>