<svg id="svg" version="1.1" xmlns="http://www.w3.org/2000/svg" xmlns:xlink="http://www.w3.org/1999/xlink" width="400" height="400" viewBox="0, 0, 400,400"><g id="svgg"><path id="path0" d="M170.200 118.800 C 170.064 119.020,169.549 119.200,169.055 119.200 C 167.892 119.200,165.200 121.665,165.200 122.730 C 165.200 123.183,165.020 123.664,164.800 123.800 C 164.580 123.936,164.400 124.418,164.400 124.871 C 164.400 125.324,164.025 126.889,163.566 128.347 C 162.130 132.919,162.000 133.430,162.000 134.505 C 162.000 135.081,161.820 135.664,161.600 135.800 C 161.380 135.936,161.200 136.746,161.200 137.600 C 161.200 138.454,161.038 139.253,160.841 139.375 C 160.643 139.497,160.355 140.858,160.200 142.398 C 160.045 143.939,159.757 145.200,159.559 145.200 C 159.362 145.200,159.200 145.830,159.200 146.600 C 159.200 147.370,159.020 148.000,158.800 148.000 C 158.580 148.000,158.400 148.709,158.400 149.576 C 158.400 150.443,158.220 151.264,158.000 151.400 C 157.780 151.536,157.600 152.447,157.600 153.424 C 157.600 154.401,157.420 155.200,157.200 155.200 C 156.980 155.200,156.800 155.549,156.800 155.976 C 156.800 156.403,156.620 156.864,156.400 157.000 C 156.180 157.136,156.000 157.856,156.000 158.600 C 156.000 159.344,155.820 160.064,155.600 160.200 C 155.380 160.336,155.200 161.121,155.200 161.944 C 155.200 164.535,156.715 164.400,127.720 164.400 C 110.307 164.400,101.200 164.537,101.200 164.800 C 101.200 165.020,100.660 165.200,100.000 165.200 C 99.340 165.200,98.800 165.380,98.800 165.600 C 98.800 165.820,98.573 166.000,98.296 166.000 C 97.471 166.000,96.050 168.434,95.260 171.200 C 94.977 172.190,94.585 173.540,94.389 174.200 C 94.193 174.860,93.910 176.620,93.760 178.111 C 93.610 179.602,93.333 180.918,93.144 181.035 C 92.955 181.152,92.800 181.676,92.800 182.200 C 92.800 182.724,92.620 183.264,92.400 183.400 C 92.180 183.536,92.000 184.267,92.000 185.024 C 92.000 185.781,91.820 186.400,91.600 186.400 C 91.380 186.400,91.200 187.199,91.200 188.176 C 91.200 189.153,91.020 190.064,90.800 190.200 C 90.580 190.336,90.400 191.157,90.400 192.024 C 90.400 192.891,90.220 193.600,90.000 193.600 C 89.780 193.600,89.600 194.219,89.600 194.976 C 89.600 195.733,89.420 196.464,89.200 196.600 C 88.980 196.736,88.800 197.287,88.800 197.824 C 88.800 198.361,88.620 198.800,88.400 198.800 C 88.180 198.800,88.000 199.520,88.000 200.400 C 88.000 201.280,87.820 202.000,87.600 202.000 C 87.380 202.000,87.200 202.900,87.200 204.000 C 87.200 205.100,87.020 206.000,86.800 206.000 C 86.580 206.000,86.400 206.720,86.400 207.600 C 86.400 208.480,86.220 209.200,86.000 209.200 C 85.780 209.200,85.600 209.592,85.600 210.072 C 85.600 210.992,84.940 213.328,84.351 214.495 C 83.223 216.727,83.915 219.496,86.174 221.791 L 88.348 224.000 164.374 224.000 C 214.791 224.000,240.400 224.135,240.400 224.400 C 240.400 224.620,240.747 224.800,241.171 224.800 C 241.596 224.800,242.213 225.070,242.543 225.400 C 242.873 225.730,243.336 226.000,243.571 226.000 C 243.807 226.000,244.000 226.180,244.000 226.400 C 244.000 226.620,244.320 226.800,244.712 226.800 C 245.103 226.800,245.683 227.160,246.000 227.600 C 246.317 228.040,246.857 228.400,247.200 228.400 C 247.543 228.400,248.083 228.760,248.400 229.200 C 248.717 229.640,249.257 230.000,249.600 230.000 C 249.943 230.000,250.483 230.360,250.800 230.800 C 251.117 231.240,251.697 231.600,252.088 231.600 C 252.480 231.600,252.800 231.780,252.800 232.000 C 252.800 232.220,253.120 232.400,253.512 232.400 C 253.903 232.400,254.483 232.760,254.800 233.200 C 255.117 233.640,255.657 234.000,256.000 234.000 C 256.343 234.000,256.883 234.360,257.200 234.800 C 257.517 235.240,258.031 235.600,258.341 235.600 C 258.652 235.600,259.197 235.927,259.553 236.328 C 259.909 236.728,260.501 237.167,260.869 237.303 C 261.531 237.549,261.489 238.856,260.787 239.800 C 260.624 240.020,260.364 240.965,260.210 241.900 C 260.056 242.835,259.766 243.600,259.565 243.600 C 259.364 243.600,259.200 244.039,259.200 244.576 C 259.200 245.113,259.020 245.664,258.800 245.800 C 258.580 245.936,258.400 246.847,258.400 247.824 C 258.400 248.801,258.220 249.600,258.000 249.600 C 257.778 249.600,257.600 250.667,257.600 252.000 C 257.600 253.333,257.422 254.400,257.200 254.400 C 256.959 254.400,256.800 256.059,256.800 258.576 C 256.800 260.929,256.975 262.861,257.200 263.000 C 257.420 263.136,257.600 264.137,257.600 265.224 C 257.600 266.311,257.780 267.200,258.000 267.200 C 258.220 267.200,258.400 267.830,258.400 268.600 C 258.400 269.370,258.580 270.000,258.800 270.000 C 259.020 270.000,259.200 270.360,259.200 270.800 C 259.200 271.240,259.360 271.600,259.555 271.600 C 259.751 271.600,260.030 272.234,260.175 273.009 C 260.321 273.784,260.791 274.637,261.220 274.905 C 261.649 275.173,262.000 275.622,262.000 275.902 C 262.000 276.571,268.636 283.200,269.306 283.200 C 269.591 283.200,270.083 283.560,270.400 284.000 C 270.717 284.440,271.297 284.800,271.688 284.800 C 272.080 284.800,272.400 284.980,272.400 285.200 C 272.400 285.420,272.760 285.600,273.200 285.600 C 273.640 285.600,274.000 285.780,274.000 286.000 C 274.000 286.220,274.360 286.400,274.800 286.400 C 275.240 286.400,275.600 286.580,275.600 286.800 C 275.600 287.020,275.960 287.200,276.400 287.200 C 276.840 287.200,277.200 287.380,277.200 287.600 C 277.200 287.820,277.650 288.000,278.200 288.000 C 278.750 288.000,279.200 288.180,279.200 288.400 C 279.200 288.620,279.639 288.800,280.176 288.800 C 280.713 288.800,281.264 288.980,281.400 289.200 C 281.536 289.420,282.166 289.600,282.800 289.600 C 283.434 289.600,284.064 289.780,284.200 290.000 C 284.336 290.220,285.031 290.400,285.744 290.400 C 286.457 290.400,287.211 290.571,287.421 290.781 C 287.631 290.991,289.743 291.287,292.114 291.441 C 294.486 291.594,296.521 291.873,296.637 292.060 C 296.753 292.247,301.517 292.400,307.224 292.400 L 317.600 292.400 317.600 291.000 C 317.600 290.230,317.420 289.600,317.200 289.600 C 316.980 289.600,316.800 289.060,316.800 288.400 C 316.800 287.740,316.620 287.200,316.400 287.200 C 316.180 287.200,316.000 286.660,316.000 286.000 C 316.000 285.340,315.820 284.800,315.600 284.800 C 315.380 284.800,315.200 284.260,315.200 283.600 C 315.200 282.940,315.020 282.400,314.800 282.400 C 314.580 282.400,314.400 281.860,314.400 281.200 C 314.400 280.540,314.220 280.000,314.000 280.000 C 313.780 280.000,313.600 279.460,313.600 278.800 C 313.600 278.140,313.420 277.600,313.200 277.600 C 312.980 277.600,312.800 277.150,312.800 276.600 C 312.800 276.050,312.620 275.600,312.400 275.600 C 312.180 275.600,312.000 275.060,312.000 274.400 C 312.000 273.740,311.820 273.200,311.600 273.200 C 311.380 273.200,311.200 272.660,311.200 272.000 C 311.200 271.340,311.020 270.800,310.800 270.800 C 310.580 270.800,310.400 270.260,310.400 269.600 C 310.400 268.940,310.220 268.400,310.000 268.400 C 309.780 268.400,309.600 267.860,309.600 267.200 C 309.600 266.540,309.441 266.000,309.246 266.000 C 309.051 266.000,308.769 265.013,308.618 263.806 C 308.467 262.600,308.177 261.509,307.972 261.383 C 307.767 261.256,307.600 260.713,307.600 260.176 C 307.600 259.639,307.420 259.200,307.200 259.200 C 306.980 259.200,306.800 258.660,306.800 258.000 C 306.800 257.340,306.620 256.800,306.400 256.800 C 306.180 256.800,306.000 256.260,306.000 255.600 C 306.000 254.940,305.820 254.400,305.600 254.400 C 305.380 254.400,305.200 253.860,305.200 253.200 C 305.200 252.540,305.020 252.000,304.800 252.000 C 304.580 252.000,304.400 251.460,304.400 250.800 C 304.400 250.140,304.220 249.600,304.000 249.600 C 303.780 249.600,303.600 249.060,303.600 248.400 C 303.600 247.740,303.420 247.200,303.200 247.200 C 302.980 247.200,302.800 246.761,302.800 246.224 C 302.800 245.687,302.620 245.136,302.400 245.000 C 302.180 244.864,302.000 244.313,302.000 243.776 C 302.000 243.239,301.820 242.800,301.600 242.800 C 301.380 242.800,301.200 242.260,301.200 241.600 C 301.200 240.940,301.020 240.400,300.800 240.400 C 300.580 240.400,300.400 239.860,300.400 239.200 C 300.400 238.540,300.220 238.000,300.000 238.000 C 299.780 238.000,299.600 237.460,299.600 236.800 C 299.600 236.140,299.420 235.600,299.200 235.600 C 298.980 235.600,298.800 235.060,298.800 234.400 C 298.800 233.740,298.620 233.200,298.400 233.200 C 298.180 233.200,298.000 232.660,298.000 232.000 C 298.000 231.340,297.820 230.800,297.600 230.800 C 297.380 230.800,297.200 230.260,297.200 229.600 C 297.200 228.940,297.020 228.400,296.800 228.400 C 296.580 228.400,296.400 227.950,296.400 227.400 C 296.400 226.850,296.220 226.400,296.000 226.400 C 295.780 226.400,295.600 225.860,295.600 225.200 C 295.600 224.540,295.420 224.000,295.200 224.000 C 294.980 224.000,294.800 223.460,294.800 222.800 C 294.800 222.140,294.620 221.600,294.400 221.600 C 294.180 221.600,294.000 221.060,294.000 220.400 C 294.000 219.740,293.820 219.200,293.600 219.200 C 293.380 219.200,293.200 218.660,293.200 218.000 C 293.200 217.340,293.020 216.800,292.800 216.800 C 292.580 216.800,292.400 216.260,292.400 215.600 C 292.400 214.940,292.241 214.400,292.046 214.400 C 291.851 214.400,291.568 213.410,291.417 212.200 C 291.266 210.990,290.975 210.000,290.771 210.000 C 290.567 210.000,290.400 209.460,290.400 208.800 C 290.400 207.733,290.267 207.600,289.200 207.600 C 288.540 207.600,288.000 207.780,288.000 208.000 C 288.000 208.220,287.706 208.400,287.347 208.400 C 286.988 208.400,286.403 208.732,286.047 209.139 C 285.691 209.545,284.918 210.130,284.329 210.439 C 282.042 211.637,271.600 221.484,271.600 222.442 C 271.600 222.683,271.060 223.383,270.400 224.000 C 269.740 224.617,269.200 225.409,269.200 225.760 C 269.200 226.662,267.889 226.556,267.200 225.600 C 266.883 225.160,266.303 224.800,265.912 224.800 C 265.520 224.800,265.200 224.620,265.200 224.400 C 265.200 224.180,264.880 224.000,264.488 224.000 C 264.097 224.000,263.517 223.640,263.200 223.200 C 262.883 222.760,262.343 222.400,262.000 222.400 C 261.657 222.400,261.117 222.040,260.800 221.600 C 260.483 221.160,259.943 220.800,259.600 220.800 C 259.257 220.800,258.717 220.440,258.400 220.000 C 258.083 219.560,257.593 219.200,257.312 219.200 C 257.030 219.200,256.800 219.020,256.800 218.800 C 256.800 218.580,256.480 218.400,256.088 218.400 C 255.697 218.400,255.117 218.040,254.800 217.600 C 254.483 217.160,253.943 216.800,253.600 216.800 C 253.257 216.800,252.717 216.440,252.400 216.000 C 252.083 215.560,251.586 215.200,251.295 215.200 C 251.004 215.200,250.380 214.840,249.908 214.400 C 249.436 213.960,248.813 213.600,248.525 213.600 C 248.236 213.600,248.000 213.420,248.000 213.200 C 248.000 212.980,247.640 212.800,247.200 212.800 C 246.618 212.800,246.400 212.533,246.400 211.824 C 246.400 211.287,246.220 210.736,246.000 210.600 C 245.780 210.464,245.600 208.833,245.600 206.976 C 245.600 204.992,245.435 203.600,245.200 203.600 C 244.961 203.600,244.800 202.067,244.800 199.800 C 244.800 197.533,244.639 196.000,244.400 196.000 C 244.175 196.000,244.000 194.875,244.000 193.424 C 244.000 192.007,243.820 190.736,243.600 190.600 C 243.380 190.464,243.200 189.283,243.200 187.976 C 243.200 186.659,243.022 185.600,242.800 185.600 C 242.567 185.600,242.400 184.267,242.400 182.400 C 242.400 180.640,242.248 179.200,242.062 179.200 C 241.876 179.200,241.603 176.635,241.456 173.500 C 241.308 170.365,240.899 166.270,240.547 164.400 C 240.195 162.530,239.825 159.650,239.724 158.000 C 239.623 156.350,239.373 154.829,239.170 154.620 C 238.966 154.411,238.800 152.847,238.800 151.144 C 238.800 149.441,238.620 147.936,238.400 147.800 C 238.180 147.664,238.000 145.943,238.000 143.976 C 238.000 141.859,237.837 140.400,237.600 140.400 C 237.374 140.400,237.200 139.259,237.200 137.776 C 237.200 136.333,237.065 135.235,236.900 135.336 C 236.735 135.437,236.542 134.232,236.472 132.659 C 236.402 131.087,236.177 129.740,235.972 129.667 C 235.767 129.593,235.600 128.209,235.600 126.590 C 235.600 124.972,235.420 123.536,235.200 123.400 C 234.980 123.264,234.800 122.887,234.800 122.563 C 234.800 121.574,232.127 119.200,231.013 119.200 C 230.456 119.200,230.000 119.020,230.000 118.800 C 230.000 118.537,219.808 118.400,200.224 118.400 C 180.804 118.400,170.361 118.539,170.200 118.800 M222.720 132.080 C 222.992 132.352,223.200 133.653,223.200 135.080 C 223.200 136.466,223.365 137.600,223.566 137.600 C 223.767 137.600,224.037 138.770,224.166 140.200 C 224.295 141.630,224.505 143.970,224.634 145.400 C 224.763 146.830,225.033 148.000,225.234 148.000 C 225.435 148.000,225.600 149.440,225.600 151.200 C 225.600 153.067,225.767 154.400,226.000 154.400 C 226.231 154.400,226.400 155.667,226.400 157.400 C 226.400 159.133,226.569 160.400,226.800 160.400 C 227.020 160.400,227.200 161.300,227.200 162.400 L 227.200 164.400 197.800 164.400 L 168.400 164.400 168.400 163.200 C 168.400 162.540,168.580 162.000,168.800 162.000 C 169.020 162.000,169.200 161.471,169.200 160.824 C 169.200 160.177,169.380 159.536,169.600 159.400 C 169.820 159.264,170.000 158.544,170.000 157.800 C 170.000 157.056,170.180 156.336,170.400 156.200 C 170.620 156.064,170.800 155.344,170.800 154.600 C 170.800 153.856,170.980 153.136,171.200 153.000 C 171.420 152.864,171.600 152.144,171.600 151.400 C 171.600 150.656,171.760 149.948,171.956 149.827 C 172.151 149.706,172.405 149.021,172.519 148.304 C 172.632 147.587,172.937 146.280,173.196 145.400 C 173.454 144.520,173.764 143.260,173.883 142.600 C 174.003 141.940,174.238 141.220,174.406 141.000 C 174.574 140.780,174.839 139.295,174.996 137.700 C 175.153 136.105,175.443 134.800,175.641 134.800 C 175.838 134.800,176.000 134.296,176.000 133.680 C 176.000 133.064,176.216 132.344,176.480 132.080 C 177.173 131.387,222.027 131.387,222.720 132.080 M106.000 234.400 C 106.000 234.620,105.280 234.800,104.400 234.800 C 103.520 234.800,102.800 234.980,102.800 235.200 C 102.800 235.420,102.260 235.600,101.600 235.600 C 100.940 235.600,100.400 235.780,100.400 236.000 C 100.400 236.220,99.860 236.400,99.200 236.400 C 98.540 236.400,98.000 236.580,98.000 236.800 C 98.000 237.020,97.640 237.200,97.200 237.200 C 96.760 237.200,96.400 237.380,96.400 237.600 C 96.400 237.820,96.164 238.000,95.875 238.000 C 95.587 238.000,94.964 238.360,94.492 238.800 C 94.020 239.240,93.532 239.600,93.408 239.600 C 93.284 239.600,92.193 240.590,90.983 241.800 C 89.773 243.010,88.637 244.000,88.459 244.000 C 88.281 244.000,87.881 244.495,87.570 245.100 C 87.260 245.705,86.689 246.491,86.303 246.847 C 85.916 247.203,85.600 247.788,85.600 248.147 C 85.600 248.506,85.420 248.800,85.200 248.800 C 84.980 248.800,84.800 249.160,84.800 249.600 C 84.800 250.040,84.620 250.400,84.400 250.400 C 84.180 250.400,84.000 250.760,84.000 251.200 C 84.000 251.640,83.820 252.000,83.600 252.000 C 83.380 252.000,83.200 252.540,83.200 253.200 C 83.200 253.860,83.020 254.400,82.800 254.400 C 82.580 254.400,82.400 255.120,82.400 256.000 C 82.400 256.880,82.220 257.600,82.000 257.600 C 81.752 257.600,81.600 259.725,81.600 263.176 C 81.600 266.463,81.764 268.854,82.000 269.000 C 82.220 269.136,82.400 269.957,82.400 270.824 C 82.400 271.691,82.580 272.400,82.800 272.400 C 83.020 272.400,83.200 272.940,83.200 273.600 C 83.200 274.260,83.380 274.800,83.600 274.800 C 83.820 274.800,84.000 275.070,84.000 275.400 C 84.000 275.730,84.180 276.000,84.400 276.000 C 84.620 276.000,84.800 276.360,84.800 276.800 C 84.800 277.240,84.980 277.600,85.200 277.600 C 85.420 277.600,85.600 277.920,85.600 278.312 C 85.600 278.703,85.960 279.283,86.400 279.600 C 86.840 279.917,87.200 280.410,87.200 280.695 C 87.200 281.194,92.944 287.200,93.421 287.200 C 93.550 287.200,94.408 287.715,95.328 288.343 C 96.248 288.972,97.720 289.730,98.600 290.027 C 99.480 290.324,100.398 290.709,100.641 290.883 C 100.883 291.057,102.194 291.316,103.553 291.458 C 104.913 291.600,106.120 291.870,106.236 292.058 C 106.512 292.505,224.800 292.505,224.800 292.058 C 224.800 291.870,226.002 291.603,227.472 291.466 C 228.941 291.329,230.327 291.033,230.552 290.808 C 230.776 290.584,231.284 290.400,231.680 290.400 C 232.076 290.400,232.400 290.220,232.400 290.000 C 232.400 289.780,232.760 289.600,233.200 289.600 C 233.640 289.600,234.000 289.420,234.000 289.200 C 234.000 288.980,234.360 288.800,234.800 288.800 C 235.240 288.800,235.600 288.620,235.600 288.400 C 235.600 288.180,235.920 288.000,236.312 288.000 C 236.703 288.000,237.283 287.640,237.600 287.200 C 237.917 286.760,238.362 286.399,238.588 286.398 C 239.322 286.395,242.400 283.148,242.400 282.377 C 242.400 282.126,242.940 281.417,243.600 280.800 C 244.260 280.183,244.800 279.391,244.800 279.040 C 244.800 278.688,244.980 278.400,245.200 278.400 C 245.420 278.400,245.600 278.080,245.600 277.688 C 245.600 277.297,245.960 276.717,246.400 276.400 C 246.840 276.083,247.200 275.503,247.200 275.112 C 247.200 274.720,247.380 274.400,247.600 274.400 C 247.820 274.400,248.000 273.770,248.000 273.000 C 248.000 272.230,248.180 271.600,248.400 271.600 C 248.620 271.600,248.800 270.700,248.800 269.600 C 248.800 268.500,248.980 267.600,249.200 267.600 C 249.441 267.600,249.600 265.933,249.600 263.400 C 249.600 260.867,249.441 259.200,249.200 259.200 C 248.980 259.200,248.800 258.300,248.800 257.200 C 248.800 256.100,248.620 255.200,248.400 255.200 C 248.180 255.200,248.000 254.480,248.000 253.600 C 248.000 252.720,247.820 252.000,247.600 252.000 C 247.380 252.000,247.200 251.640,247.200 251.200 C 247.200 250.760,247.020 250.400,246.800 250.400 C 246.580 250.400,246.400 250.164,246.400 249.875 C 246.400 249.587,246.040 248.964,245.600 248.492 C 245.160 248.020,244.800 247.396,244.800 247.105 C 244.800 246.814,244.440 246.317,244.000 246.000 C 243.560 245.683,243.200 245.275,243.200 245.094 C 243.200 244.912,242.795 244.333,242.300 243.807 C 241.805 243.281,240.950 242.304,240.400 241.637 C 239.850 240.970,239.125 240.419,238.788 240.412 C 238.452 240.405,237.917 240.040,237.600 239.600 C 237.283 239.160,236.786 238.800,236.495 238.800 C 236.204 238.800,235.580 238.440,235.108 238.000 C 234.636 237.560,233.833 237.200,233.325 237.200 C 232.816 237.200,232.400 237.020,232.400 236.800 C 232.400 236.580,232.040 236.400,231.600 236.400 C 231.160 236.400,230.800 236.220,230.800 236.000 C 230.800 235.780,230.260 235.600,229.600 235.600 C 228.940 235.600,228.400 235.420,228.400 235.200 C 228.400 234.980,227.680 234.800,226.800 234.800 C 225.920 234.800,225.200 234.620,225.200 234.400 C 225.200 234.135,205.067 234.000,165.600 234.000 C 126.133 234.000,106.000 234.135,106.000 234.400 " stroke="none" fill="#1c1c1c" fill-rule="evenodd"></path><path id="path1" d="" stroke="none" fill="#201c1c" fill-rule="evenodd"></path><path id="path2" d="" stroke="none" fill="#201c1c" fill-rule="evenodd"></path><path id="path3" d="" stroke="none" fill="#201c1c" fill-rule="evenodd"></path><path id="path4" d="" stroke="none" fill="#201c1c" fill-rule="evenodd"></path></g></svg>