<?xml version="1.0" encoding="UTF-8" standalone="no"?><!-- Generator: Gravit.io --><svg xmlns="http://www.w3.org/2000/svg" xmlns:xlink="http://www.w3.org/1999/xlink" style="isolation:isolate" viewBox="0 0 48 24" width="48pt" height="24pt"><defs><clipPath id="_clipPath_MPEoVMYhl0WPfCcnfLSoTtcAdW9dVcvn"><rect width="48" height="24"/></clipPath></defs><g clip-path="url(#_clipPath_MPEoVMYhl0WPfCcnfLSoTtcAdW9dVcvn)"><g><path d=" M 12.294 4.226 C 12.172 4.344 12.1 4.466 12.134 4.496 C 12.167 4.527 12.14 4.552 12.072 4.552 C 11.897 4.552 11.454 4.977 11.454 5.145 C 11.454 5.223 11.408 5.287 11.353 5.287 C 11.297 5.287 11.252 5.327 11.252 5.376 C 11.252 5.425 11.331 5.441 11.429 5.411 C 11.528 5.38 11.495 5.43 11.353 5.524 C 11.011 5.752 10.845 5.955 10.895 6.084 C 10.918 6.143 10.871 6.214 10.791 6.242 C 10.711 6.27 10.646 6.356 10.646 6.433 C 10.646 6.511 10.612 6.575 10.57 6.575 C 10.459 6.576 10.238 7.045 10.303 7.141 C 10.333 7.186 10.298 7.211 10.224 7.197 C 10.15 7.183 10.09 7.241 10.089 7.326 C 10.088 7.411 10.047 7.515 9.997 7.556 C 9.944 7.6 9.941 7.578 9.989 7.502 C 10.045 7.415 10.033 7.395 9.953 7.44 C 9.888 7.476 9.86 7.544 9.892 7.591 C 9.923 7.637 9.86 7.762 9.752 7.868 C 9.643 7.974 9.567 8.161 9.581 8.283 C 9.596 8.405 9.58 8.505 9.546 8.505 C 9.37 8.505 8.911 8.974 8.964 9.1 C 9.003 9.192 8.964 9.241 8.85 9.242 C 8.714 9.243 8.706 9.261 8.813 9.322 C 8.922 9.385 8.91 9.426 8.755 9.528 C 8.648 9.597 8.496 9.789 8.417 9.953 C 8.338 10.117 8.228 10.253 8.172 10.253 C 8.116 10.254 8.138 10.295 8.222 10.344 C 8.323 10.403 8.331 10.433 8.247 10.434 C 8.177 10.435 8.121 10.498 8.121 10.574 C 8.121 10.65 8.075 10.712 8.02 10.712 C 7.964 10.712 7.922 10.784 7.927 10.872 C 7.931 10.969 7.955 10.987 7.985 10.918 C 8.069 10.73 8.207 10.788 8.15 10.987 C 8.097 11.17 8.147 11.171 15.281 11.171 L 22.464 11.171 L 22.464 10.712 C 22.464 10.353 22.508 10.228 22.666 10.139 C 22.891 10.011 22.937 9.796 22.742 9.786 C 22.673 9.783 22.714 9.737 22.834 9.683 C 22.954 9.631 23.077 9.52 23.106 9.437 C 23.179 9.229 23.508 8.742 23.601 8.704 C 23.642 8.687 23.676 8.571 23.676 8.446 C 23.676 8.321 23.713 8.239 23.757 8.264 C 23.802 8.289 23.9 8.219 23.975 8.108 C 24.105 7.92 24.101 7.915 23.92 8.034 C 23.814 8.103 23.852 8.054 24.005 7.923 C 24.157 7.793 24.282 7.622 24.282 7.544 C 24.282 7.466 24.328 7.402 24.383 7.402 C 24.439 7.402 24.484 7.337 24.484 7.258 C 24.484 7.179 24.53 7.141 24.585 7.172 C 24.643 7.204 24.686 7.125 24.686 6.988 C 24.686 6.851 24.73 6.772 24.787 6.804 C 24.843 6.835 24.889 6.795 24.889 6.714 C 24.889 6.633 24.979 6.479 25.089 6.371 C 25.244 6.219 25.263 6.147 25.173 6.048 C 25.109 5.978 25.098 5.928 25.149 5.936 C 25.381 5.977 25.511 5.92 25.461 5.8 C 25.431 5.729 25.46 5.651 25.526 5.627 C 25.592 5.603 25.732 5.449 25.838 5.284 C 25.943 5.119 25.977 5.013 25.913 5.049 C 25.846 5.087 25.798 5.056 25.798 4.974 C 25.798 4.887 25.855 4.853 25.949 4.886 C 26.094 4.937 26.146 4.835 26.108 4.573 C 26.099 4.51 26.162 4.433 26.247 4.403 C 26.333 4.373 26.404 4.27 26.404 4.174 C 26.404 4.005 26.208 4 19.459 4.006 L 12.515 4.011 L 12.294 4.226 Z  M 28.5 4.218 C 28.347 4.337 28.222 4.503 28.222 4.585 C 28.222 4.677 28.139 4.736 28.009 4.736 C 27.876 4.736 27.815 4.78 27.847 4.855 C 27.874 4.921 27.786 5.073 27.649 5.192 C 27.471 5.349 27.417 5.471 27.46 5.624 C 27.494 5.75 27.473 5.839 27.41 5.839 C 27.35 5.839 27.333 5.791 27.373 5.733 C 27.418 5.667 27.401 5.651 27.328 5.692 C 27.264 5.728 27.212 5.817 27.212 5.89 C 27.212 5.963 27.178 6.023 27.136 6.023 C 27.094 6.024 27.01 6.124 26.947 6.246 C 26.851 6.434 26.859 6.461 26.998 6.426 C 27.088 6.403 27.056 6.435 26.928 6.496 C 26.799 6.557 26.669 6.722 26.639 6.862 C 26.608 7.002 26.474 7.19 26.342 7.281 C 26.209 7.371 26.101 7.518 26.101 7.607 C 26.101 7.697 26.055 7.77 26 7.77 C 25.944 7.77 25.899 7.852 25.899 7.953 C 25.899 8.055 25.848 8.137 25.787 8.137 C 25.725 8.137 25.7 8.197 25.731 8.271 C 25.771 8.364 25.739 8.387 25.623 8.346 C 25.503 8.304 25.476 8.328 25.522 8.436 C 25.556 8.517 25.516 8.635 25.433 8.697 C 25.313 8.788 25.309 8.825 25.414 8.886 C 25.491 8.93 25.499 8.962 25.434 8.963 C 25.172 8.967 24.856 9.324 24.988 9.469 C 25.093 9.584 25.086 9.608 24.945 9.608 C 24.852 9.608 24.803 9.648 24.836 9.697 C 24.869 9.746 24.804 9.839 24.691 9.903 C 24.558 9.978 24.484 10.119 24.483 10.297 C 24.482 10.486 24.454 10.534 24.395 10.45 C 24.339 10.37 24.305 10.476 24.299 10.748 L 24.29 11.171 L 31.57 11.171 L 38.85 11.171 L 38.773 10.918 C 38.731 10.779 38.694 10.593 38.69 10.505 C 38.687 10.416 38.648 10.344 38.604 10.344 C 38.561 10.344 38.525 10.257 38.525 10.15 C 38.525 10.026 38.477 9.973 38.389 10.004 C 38.292 10.038 38.267 9.988 38.3 9.83 C 38.326 9.706 38.298 9.608 38.237 9.608 C 38.177 9.608 38.153 9.681 38.184 9.769 C 38.231 9.9 38.222 9.906 38.137 9.797 C 38.08 9.723 38.054 9.633 38.078 9.597 C 38.139 9.507 37.908 9.057 37.802 9.057 C 37.755 9.057 37.717 8.977 37.717 8.88 C 37.717 8.784 37.683 8.691 37.641 8.674 C 37.6 8.657 37.487 8.519 37.391 8.367 C 37.296 8.215 37.175 8.1 37.124 8.111 C 37.073 8.122 37.056 8.043 37.087 7.935 C 37.132 7.778 37.109 7.751 36.971 7.799 C 36.859 7.838 36.822 7.824 36.865 7.76 C 36.956 7.626 36.703 7.209 36.575 7.281 C 36.519 7.313 36.505 7.292 36.544 7.235 C 36.635 7.101 36.228 6.732 36.08 6.816 C 36.006 6.857 35.987 6.829 36.025 6.738 C 36.058 6.66 36.039 6.555 35.983 6.504 C 35.914 6.441 35.918 6.39 35.995 6.347 C 36.068 6.306 36.02 6.221 35.856 6.104 C 35.71 5.999 35.629 5.868 35.662 5.789 C 35.701 5.696 35.646 5.653 35.48 5.648 C 35.349 5.644 35.299 5.62 35.368 5.594 C 35.552 5.527 35.524 5.287 35.332 5.287 C 35.23 5.287 35.191 5.237 35.228 5.149 C 35.26 5.073 35.242 5.011 35.188 5.011 C 35.135 5.011 35.091 4.949 35.091 4.873 C 35.091 4.798 35.015 4.736 34.922 4.736 C 34.83 4.736 34.779 4.713 34.809 4.686 C 34.839 4.658 34.711 4.493 34.524 4.318 L 34.185 4 L 31.481 4 C 28.784 4 28.777 4.001 28.5 4.218 Z  M 6.011 13.194 C 5.618 13.541 5.471 13.734 5.697 13.607 C 5.756 13.574 5.749 13.65 5.681 13.786 C 5.616 13.916 5.542 14.003 5.516 13.98 C 5.452 13.922 5.191 14.171 5.191 14.291 C 5.191 14.345 5.146 14.389 5.09 14.389 C 4.91 14.389 4.983 14.573 5.166 14.58 C 5.279 14.585 5.245 14.62 5.07 14.678 C 4.921 14.728 4.739 14.89 4.667 15.039 C 4.595 15.187 4.502 15.309 4.459 15.309 C 4.417 15.309 4.383 15.39 4.383 15.489 C 4.383 15.588 4.299 15.743 4.196 15.834 C 4.094 15.924 3.946 16.133 3.869 16.297 C 3.791 16.461 3.693 16.596 3.651 16.596 C 3.609 16.596 3.575 16.678 3.575 16.78 C 3.575 16.881 3.53 16.963 3.474 16.963 C 3.418 16.963 3.373 17.026 3.373 17.101 C 3.373 17.177 3.322 17.239 3.26 17.239 C 3.194 17.239 3.167 17.335 3.196 17.47 C 3.235 17.657 3.218 17.681 3.107 17.597 C 2.998 17.514 2.969 17.533 2.969 17.688 C 2.969 17.795 2.916 17.883 2.851 17.883 C 2.786 17.883 2.761 17.908 2.796 17.94 C 2.83 17.971 2.792 18.057 2.712 18.13 C 2.631 18.204 2.564 18.354 2.563 18.464 C 2.562 18.627 2.544 18.639 2.464 18.526 C 2.38 18.409 2.366 18.412 2.364 18.549 C 2.364 18.638 2.313 18.71 2.251 18.71 C 2.19 18.71 2.166 18.774 2.199 18.852 C 2.232 18.929 2.198 19.014 2.125 19.04 C 2.039 19.07 1.995 19.239 2 19.519 L 2.009 19.952 L 8.785 19.975 L 15.561 19.999 L 15.694 19.771 C 15.803 19.587 15.803 19.517 15.699 19.403 C 15.602 19.296 15.6 19.262 15.692 19.262 C 15.76 19.262 15.795 19.21 15.772 19.148 C 15.749 19.085 15.825 18.99 15.941 18.937 C 16.082 18.872 16.147 18.758 16.14 18.591 C 16.132 18.409 16.173 18.347 16.291 18.364 C 16.38 18.378 16.497 18.295 16.553 18.182 C 16.608 18.068 16.691 17.975 16.737 17.975 C 16.783 17.975 16.792 17.892 16.757 17.791 C 16.72 17.685 16.739 17.607 16.801 17.607 C 16.86 17.607 16.909 17.659 16.909 17.722 C 16.91 17.785 16.978 17.718 17.061 17.573 C 17.144 17.429 17.212 17.269 17.212 17.219 C 17.212 17.169 17.325 17.005 17.464 16.855 C 17.722 16.576 17.804 16.352 17.608 16.462 C 17.548 16.495 17.56 16.436 17.633 16.328 C 17.707 16.222 17.846 16.111 17.944 16.083 C 18.041 16.055 18.121 15.955 18.121 15.862 C 18.121 15.768 18.178 15.671 18.247 15.645 C 18.343 15.61 18.342 15.597 18.24 15.592 C 18.139 15.586 18.145 15.549 18.266 15.439 C 18.354 15.359 18.395 15.249 18.359 15.195 C 18.319 15.136 18.339 15.123 18.408 15.162 C 18.477 15.201 18.525 15.169 18.525 15.084 C 18.525 15.005 18.572 14.941 18.63 14.941 C 18.688 14.941 18.728 14.889 18.719 14.826 C 18.68 14.553 18.741 14.436 18.828 14.619 C 18.909 14.791 18.915 14.792 18.922 14.63 C 18.926 14.535 19.012 14.39 19.113 14.308 C 19.215 14.226 19.362 14.025 19.441 13.861 C 19.52 13.696 19.618 13.562 19.661 13.562 C 19.703 13.562 19.737 13.479 19.737 13.378 C 19.737 13.277 19.773 13.194 19.816 13.194 C 19.86 13.194 19.903 13.111 19.911 13.01 C 19.926 12.828 19.864 12.826 13.177 12.826 L 6.428 12.826 L 6.011 13.194 Z  M 22.176 12.904 C 22.204 13.092 22.143 13.194 22.002 13.194 C 21.915 13.194 21.776 13.256 21.692 13.332 C 21.576 13.438 21.571 13.47 21.674 13.471 C 21.776 13.472 21.772 13.493 21.661 13.557 C 21.58 13.604 21.471 13.617 21.418 13.587 C 21.365 13.558 21.354 13.581 21.393 13.639 C 21.433 13.697 21.354 13.845 21.22 13.968 C 21.034 14.136 21.002 14.219 21.088 14.304 C 21.172 14.387 21.172 14.401 21.087 14.358 C 21.024 14.325 20.915 14.362 20.845 14.438 C 20.738 14.556 20.748 14.568 20.909 14.521 C 21.023 14.487 20.961 14.574 20.756 14.735 C 20.532 14.911 20.433 15.057 20.472 15.151 C 20.539 15.31 20.318 15.531 20.199 15.423 C 20.158 15.385 20.133 15.396 20.144 15.446 C 20.195 15.674 20.136 15.903 20.057 15.789 C 19.946 15.631 19.687 16.069 19.772 16.27 C 19.814 16.37 19.752 16.451 19.58 16.523 C 19.429 16.586 19.347 16.68 19.378 16.755 C 19.408 16.824 19.39 16.858 19.339 16.829 C 19.288 16.8 19.217 16.86 19.182 16.962 C 19.146 17.064 19.075 17.147 19.023 17.147 C 18.971 17.147 18.929 17.23 18.929 17.331 C 18.929 17.432 18.879 17.515 18.817 17.515 C 18.756 17.515 18.728 17.569 18.756 17.635 C 18.783 17.701 18.694 17.853 18.556 17.973 C 18.386 18.122 18.321 18.262 18.352 18.409 C 18.377 18.527 18.374 18.604 18.346 18.578 C 18.271 18.51 17.614 19.185 17.672 19.27 C 17.699 19.31 17.64 19.385 17.542 19.437 C 17.41 19.507 17.402 19.533 17.51 19.535 C 17.623 19.537 17.629 19.562 17.535 19.648 C 17.176 19.975 17.293 19.983 22.622 19.99 C 26.761 19.996 27.814 19.974 27.754 19.883 C 27.695 19.793 27.711 19.792 27.824 19.875 C 27.92 19.946 28.481 19.984 29.46 19.987 L 30.949 19.991 L 30.949 19.634 C 30.949 19.438 30.904 19.264 30.849 19.247 C 30.794 19.23 30.739 19.101 30.726 18.961 C 30.712 18.811 30.655 18.723 30.585 18.747 C 30.511 18.773 30.486 18.723 30.518 18.611 C 30.546 18.514 30.518 18.435 30.456 18.435 C 30.394 18.435 30.343 18.354 30.343 18.255 C 30.343 18.156 30.232 17.974 30.097 17.851 C 29.961 17.727 29.878 17.602 29.912 17.571 C 29.945 17.54 29.92 17.515 29.855 17.515 C 29.79 17.515 29.742 17.484 29.749 17.446 C 29.776 17.29 29.73 17.154 29.611 17.039 C 29.541 16.972 29.42 16.804 29.341 16.665 C 29.262 16.526 29.137 16.412 29.063 16.412 C 28.99 16.412 28.929 16.347 28.929 16.268 C 28.929 16.184 28.882 16.152 28.812 16.191 C 28.739 16.232 28.723 16.216 28.771 16.146 C 28.812 16.086 28.785 15.968 28.71 15.885 C 28.629 15.793 28.623 15.759 28.695 15.798 C 28.77 15.839 28.758 15.761 28.662 15.586 C 28.578 15.433 28.468 15.309 28.417 15.309 C 28.365 15.309 28.328 15.278 28.334 15.24 C 28.353 15.116 28.2 14.757 28.128 14.757 C 28.089 14.757 27.995 14.612 27.919 14.435 C 27.824 14.215 27.754 14.149 27.699 14.228 C 27.646 14.305 27.618 14.274 27.617 14.136 C 27.617 14.023 27.57 13.929 27.515 13.929 C 27.459 13.929 27.414 13.844 27.414 13.74 C 27.414 13.636 27.368 13.576 27.313 13.608 C 27.257 13.639 27.212 13.619 27.212 13.563 C 27.212 13.38 26.725 13.009 26.561 13.067 C 26.474 13.097 26.404 13.074 26.404 13.014 C 26.404 12.956 26.449 12.933 26.505 12.964 C 26.56 12.995 26.606 12.978 26.606 12.925 C 26.606 12.862 25.86 12.832 24.387 12.837 C 23.166 12.841 22.172 12.871 22.176 12.904 Z  M 28.857 12.995 C 28.849 13.088 28.95 13.277 29.082 13.416 C 29.213 13.555 29.296 13.727 29.265 13.799 C 29.214 13.92 29.345 13.975 29.586 13.934 C 29.641 13.924 29.632 13.967 29.565 14.029 C 29.469 14.118 29.513 14.201 29.767 14.413 C 29.945 14.562 30.034 14.656 29.964 14.623 C 29.895 14.589 29.838 14.606 29.838 14.659 C 29.838 14.713 29.884 14.757 29.939 14.757 C 29.995 14.757 30.04 14.821 30.04 14.899 C 30.04 15.096 30.517 15.521 30.575 15.375 C 30.599 15.313 30.621 15.423 30.623 15.619 C 30.624 15.815 30.668 16.002 30.72 16.033 C 30.771 16.064 30.941 16.328 31.095 16.619 C 31.25 16.909 31.412 17.147 31.454 17.147 C 31.497 17.147 31.556 17.23 31.585 17.331 C 31.638 17.516 32.06 17.601 32.06 17.427 C 32.06 17.379 32.174 17.236 32.314 17.109 C 32.454 16.982 32.562 16.845 32.555 16.806 C 32.521 16.621 32.575 16.498 32.666 16.55 C 32.722 16.581 32.767 16.521 32.767 16.417 C 32.767 16.313 32.813 16.228 32.868 16.228 C 32.924 16.228 32.969 16.163 32.969 16.085 C 32.969 16.006 33.015 15.967 33.07 15.998 C 33.126 16.029 33.171 15.988 33.171 15.906 C 33.171 15.824 33.127 15.783 33.072 15.814 C 33.015 15.845 32.997 15.81 33.03 15.733 C 33.061 15.657 33.152 15.618 33.23 15.646 C 33.326 15.679 33.374 15.632 33.374 15.502 C 33.374 15.396 33.416 15.309 33.468 15.309 C 33.57 15.309 33.714 14.987 33.722 14.742 C 33.725 14.657 33.768 14.554 33.819 14.512 C 33.872 14.468 33.882 14.481 33.843 14.544 C 33.805 14.603 33.82 14.678 33.877 14.71 C 33.934 14.742 33.98 14.683 33.98 14.579 C 33.98 14.474 34.015 14.389 34.058 14.389 C 34.101 14.389 34.226 14.203 34.336 13.976 C 34.445 13.749 34.569 13.563 34.611 13.563 C 34.653 13.562 34.687 13.396 34.687 13.194 L 34.687 12.826 L 31.779 12.826 C 29.032 12.826 28.87 12.836 28.857 12.995 Z  M 36.757 13.233 C 36.535 13.446 36.341 13.671 36.326 13.734 C 36.311 13.798 36.215 13.931 36.112 14.032 C 36.01 14.132 35.818 14.408 35.686 14.646 C 35.555 14.884 35.401 15.109 35.345 15.146 C 35.278 15.191 35.277 15.215 35.343 15.218 C 35.399 15.22 35.368 15.263 35.275 15.312 C 35.182 15.361 35.077 15.526 35.04 15.677 C 35.004 15.828 34.927 15.952 34.869 15.952 C 34.811 15.952 34.788 16.035 34.817 16.136 C 34.846 16.237 34.822 16.347 34.763 16.38 C 34.7 16.416 34.685 16.396 34.728 16.334 C 34.767 16.276 34.752 16.228 34.693 16.228 C 34.634 16.228 34.586 16.307 34.586 16.404 C 34.586 16.501 34.529 16.601 34.459 16.627 C 34.361 16.663 34.362 16.675 34.463 16.68 C 34.55 16.685 34.525 16.754 34.391 16.886 C 34.28 16.994 34.217 17.125 34.252 17.177 C 34.291 17.234 34.249 17.247 34.148 17.212 C 34.055 17.18 33.98 17.193 33.98 17.242 C 33.98 17.291 34.025 17.331 34.081 17.331 C 34.218 17.331 34.209 17.581 34.069 17.659 C 34.008 17.694 33.915 17.665 33.863 17.596 C 33.785 17.491 33.772 17.493 33.785 17.607 C 33.817 17.879 33.776 18.077 33.697 18.032 C 33.467 17.903 32.767 19.112 32.767 19.64 L 32.767 19.992 L 39.384 19.996 L 46 20 L 46 19.539 C 46 19.285 45.955 19.078 45.899 19.078 C 45.843 19.078 45.798 18.993 45.798 18.889 C 45.798 18.785 45.753 18.725 45.697 18.756 C 45.641 18.788 45.596 18.727 45.596 18.621 C 45.596 18.515 45.528 18.405 45.445 18.376 C 45.362 18.347 45.319 18.286 45.35 18.241 C 45.381 18.196 45.358 18.159 45.299 18.159 C 45.24 18.159 45.192 18.107 45.192 18.043 C 45.192 17.979 45.083 17.852 44.95 17.762 C 44.787 17.65 44.726 17.536 44.762 17.412 C 44.797 17.29 44.742 17.181 44.599 17.09 C 44.481 17.015 44.384 16.873 44.384 16.774 C 44.384 16.676 44.338 16.596 44.283 16.596 C 44.227 16.596 44.182 16.538 44.182 16.467 C 44.182 16.397 44.045 16.207 43.879 16.044 C 43.702 15.872 43.575 15.648 43.574 15.506 C 43.573 15.315 43.551 15.292 43.475 15.4 C 43.398 15.508 43.376 15.483 43.375 15.286 C 43.374 15.147 43.328 15.033 43.273 15.033 C 43.217 15.033 43.172 14.968 43.172 14.889 C 43.172 14.81 43.138 14.765 43.096 14.788 C 43.054 14.811 42.965 14.775 42.897 14.708 C 42.816 14.628 42.81 14.576 42.88 14.554 C 42.994 14.52 42.674 13.931 42.54 13.93 C 42.499 13.93 42.465 13.864 42.465 13.785 C 42.465 13.617 42.228 13.378 42.062 13.378 C 41.999 13.378 41.976 13.336 42.01 13.286 C 42.044 13.235 42.007 13.194 41.927 13.194 C 41.847 13.194 41.706 13.101 41.614 12.987 C 41.521 12.873 41.473 12.832 41.506 12.895 C 41.54 12.958 41.519 13.01 41.461 13.01 C 41.402 13.01 41.353 12.968 41.353 12.916 C 41.353 12.854 40.632 12.826 39.257 12.834 L 37.161 12.848 L 36.757 13.233 Z " fill-rule="evenodd" fill="rgb(229,229,229)"/><path d=" M 35.954 6.384 C 35.922 6.431 35.94 6.495 35.994 6.525 C 36.048 6.555 36.069 6.634 36.041 6.7 C 36.014 6.766 36.059 6.82 36.141 6.82 C 36.264 6.82 36.27 6.784 36.175 6.628 C 36.111 6.523 36.067 6.405 36.079 6.367 C 36.11 6.27 36.023 6.282 35.954 6.384 Z  M 22.532 10.221 C 22.427 10.317 22.452 10.62 22.565 10.62 C 22.621 10.62 22.666 10.516 22.666 10.39 C 22.666 10.149 22.643 10.12 22.532 10.221 Z  M 7.984 10.938 C 7.953 11.013 7.966 11.095 8.012 11.121 C 8.059 11.148 8.121 11.087 8.15 10.986 C 8.21 10.776 8.07 10.735 7.984 10.938 Z  M 22.136 12.954 C 21.951 13.082 21.905 13.194 22.036 13.194 C 22.078 13.194 22.169 13.111 22.239 13.01 C 22.386 12.796 22.374 12.789 22.136 12.954 Z  M 34.688 12.987 C 34.687 13.101 34.732 13.194 34.788 13.194 C 34.914 13.194 34.914 13.096 34.788 12.918 C 34.708 12.807 34.689 12.82 34.688 12.987 Z  M 20.38 15.171 C 20.413 15.25 20.382 15.309 20.306 15.309 C 20.234 15.309 20.175 15.371 20.175 15.447 C 20.175 15.567 20.199 15.566 20.353 15.438 C 20.507 15.311 20.52 15.033 20.372 15.033 C 20.344 15.033 20.348 15.095 20.38 15.171 Z  M 28.768 16.15 C 28.723 16.216 28.74 16.231 28.812 16.191 C 28.882 16.152 28.929 16.184 28.929 16.268 C 28.929 16.347 29.009 16.409 29.106 16.404 C 29.211 16.4 29.232 16.379 29.156 16.351 C 29.087 16.325 29.03 16.246 29.03 16.174 C 29.03 16.017 28.868 16.002 28.768 16.15 Z  M 34.051 17.484 C 34.091 17.58 34.075 17.615 34.007 17.577 C 33.948 17.543 33.873 17.579 33.841 17.656 C 33.793 17.769 33.819 17.777 33.982 17.698 C 34.186 17.598 34.26 17.331 34.084 17.331 C 34.03 17.331 34.015 17.4 34.051 17.484 Z  M 15.761 19.124 C 15.793 19.2 15.766 19.262 15.701 19.262 C 15.637 19.262 15.612 19.304 15.646 19.355 C 15.686 19.413 15.764 19.398 15.855 19.315 C 16.042 19.145 16.04 18.986 15.851 18.986 C 15.761 18.986 15.725 19.04 15.761 19.124 Z " fill-rule="evenodd" fill="rgb(168,164,164)"/><path d=" M 35.954 6.384 C 35.922 6.431 35.94 6.495 35.994 6.525 C 36.048 6.555 36.069 6.634 36.041 6.7 C 36.014 6.766 36.059 6.82 36.141 6.82 C 36.264 6.82 36.27 6.784 36.175 6.628 C 36.111 6.523 36.067 6.405 36.079 6.367 C 36.11 6.27 36.023 6.282 35.954 6.384 Z  M 22.532 10.221 C 22.427 10.317 22.452 10.62 22.565 10.62 C 22.621 10.62 22.666 10.516 22.666 10.39 C 22.666 10.149 22.643 10.12 22.532 10.221 Z  M 7.984 10.938 C 7.953 11.013 7.966 11.095 8.012 11.121 C 8.059 11.148 8.121 11.087 8.15 10.986 C 8.21 10.776 8.07 10.735 7.984 10.938 Z  M 22.136 12.954 C 21.951 13.082 21.905 13.194 22.036 13.194 C 22.078 13.194 22.169 13.111 22.239 13.01 C 22.386 12.796 22.374 12.789 22.136 12.954 Z  M 34.688 12.987 C 34.687 13.101 34.732 13.194 34.788 13.194 C 34.914 13.194 34.914 13.096 34.788 12.918 C 34.708 12.807 34.689 12.82 34.688 12.987 Z  M 20.38 15.171 C 20.413 15.25 20.382 15.309 20.306 15.309 C 20.234 15.309 20.175 15.371 20.175 15.447 C 20.175 15.567 20.199 15.566 20.353 15.438 C 20.507 15.311 20.52 15.033 20.372 15.033 C 20.344 15.033 20.348 15.095 20.38 15.171 Z  M 28.768 16.15 C 28.723 16.216 28.74 16.231 28.812 16.191 C 28.882 16.152 28.929 16.184 28.929 16.268 C 28.929 16.347 29.009 16.409 29.106 16.404 C 29.211 16.4 29.232 16.379 29.156 16.351 C 29.087 16.325 29.03 16.246 29.03 16.174 C 29.03 16.017 28.868 16.002 28.768 16.15 Z  M 34.051 17.484 C 34.091 17.58 34.075 17.615 34.007 17.577 C 33.948 17.543 33.873 17.579 33.841 17.656 C 33.793 17.769 33.819 17.777 33.982 17.698 C 34.186 17.598 34.26 17.331 34.084 17.331 C 34.03 17.331 34.015 17.4 34.051 17.484 Z  M 15.761 19.124 C 15.793 19.2 15.766 19.262 15.701 19.262 C 15.637 19.262 15.612 19.304 15.646 19.355 C 15.686 19.413 15.764 19.398 15.855 19.315 C 16.042 19.145 16.04 18.986 15.851 18.986 C 15.761 18.986 15.725 19.04 15.761 19.124 Z " fill-rule="evenodd" fill="rgb(168,164,164)"/><path d=" M 35.954 6.384 C 35.922 6.431 35.94 6.495 35.994 6.525 C 36.048 6.555 36.069 6.634 36.041 6.7 C 36.014 6.766 36.059 6.82 36.141 6.82 C 36.264 6.82 36.27 6.784 36.175 6.628 C 36.111 6.523 36.067 6.405 36.079 6.367 C 36.11 6.27 36.023 6.282 35.954 6.384 Z  M 22.532 10.221 C 22.427 10.317 22.452 10.62 22.565 10.62 C 22.621 10.62 22.666 10.516 22.666 10.39 C 22.666 10.149 22.643 10.12 22.532 10.221 Z  M 7.984 10.938 C 7.953 11.013 7.966 11.095 8.012 11.121 C 8.059 11.148 8.121 11.087 8.15 10.986 C 8.21 10.776 8.07 10.735 7.984 10.938 Z  M 22.136 12.954 C 21.951 13.082 21.905 13.194 22.036 13.194 C 22.078 13.194 22.169 13.111 22.239 13.01 C 22.386 12.796 22.374 12.789 22.136 12.954 Z  M 34.688 12.987 C 34.687 13.101 34.732 13.194 34.788 13.194 C 34.914 13.194 34.914 13.096 34.788 12.918 C 34.708 12.807 34.689 12.82 34.688 12.987 Z  M 20.38 15.171 C 20.413 15.25 20.382 15.309 20.306 15.309 C 20.234 15.309 20.175 15.371 20.175 15.447 C 20.175 15.567 20.199 15.566 20.353 15.438 C 20.507 15.311 20.52 15.033 20.372 15.033 C 20.344 15.033 20.348 15.095 20.38 15.171 Z  M 28.768 16.15 C 28.723 16.216 28.74 16.231 28.812 16.191 C 28.882 16.152 28.929 16.184 28.929 16.268 C 28.929 16.347 29.009 16.409 29.106 16.404 C 29.211 16.4 29.232 16.379 29.156 16.351 C 29.087 16.325 29.03 16.246 29.03 16.174 C 29.03 16.017 28.868 16.002 28.768 16.15 Z  M 34.051 17.484 C 34.091 17.58 34.075 17.615 34.007 17.577 C 33.948 17.543 33.873 17.579 33.841 17.656 C 33.793 17.769 33.819 17.777 33.982 17.698 C 34.186 17.598 34.26 17.331 34.084 17.331 C 34.03 17.331 34.015 17.4 34.051 17.484 Z  M 15.761 19.124 C 15.793 19.2 15.766 19.262 15.701 19.262 C 15.637 19.262 15.612 19.304 15.646 19.355 C 15.686 19.413 15.764 19.398 15.855 19.315 C 16.042 19.145 16.04 18.986 15.851 18.986 C 15.761 18.986 15.725 19.04 15.761 19.124 Z " fill-rule="evenodd" fill="rgb(168,164,164)"/><path d=" M 35.954 6.384 C 35.922 6.431 35.94 6.495 35.994 6.525 C 36.048 6.555 36.069 6.634 36.041 6.7 C 36.014 6.766 36.059 6.82 36.141 6.82 C 36.264 6.82 36.27 6.784 36.175 6.628 C 36.111 6.523 36.067 6.405 36.079 6.367 C 36.11 6.27 36.023 6.282 35.954 6.384 Z  M 22.532 10.221 C 22.427 10.317 22.452 10.62 22.565 10.62 C 22.621 10.62 22.666 10.516 22.666 10.39 C 22.666 10.149 22.643 10.12 22.532 10.221 Z  M 7.984 10.938 C 7.953 11.013 7.966 11.095 8.012 11.121 C 8.059 11.148 8.121 11.087 8.15 10.986 C 8.21 10.776 8.07 10.735 7.984 10.938 Z  M 22.136 12.954 C 21.951 13.082 21.905 13.194 22.036 13.194 C 22.078 13.194 22.169 13.111 22.239 13.01 C 22.386 12.796 22.374 12.789 22.136 12.954 Z  M 34.688 12.987 C 34.687 13.101 34.732 13.194 34.788 13.194 C 34.914 13.194 34.914 13.096 34.788 12.918 C 34.708 12.807 34.689 12.82 34.688 12.987 Z  M 20.38 15.171 C 20.413 15.25 20.382 15.309 20.306 15.309 C 20.234 15.309 20.175 15.371 20.175 15.447 C 20.175 15.567 20.199 15.566 20.353 15.438 C 20.507 15.311 20.52 15.033 20.372 15.033 C 20.344 15.033 20.348 15.095 20.38 15.171 Z  M 28.768 16.15 C 28.723 16.216 28.74 16.231 28.812 16.191 C 28.882 16.152 28.929 16.184 28.929 16.268 C 28.929 16.347 29.009 16.409 29.106 16.404 C 29.211 16.4 29.232 16.379 29.156 16.351 C 29.087 16.325 29.03 16.246 29.03 16.174 C 29.03 16.017 28.868 16.002 28.768 16.15 Z  M 34.051 17.484 C 34.091 17.58 34.075 17.615 34.007 17.577 C 33.948 17.543 33.873 17.579 33.841 17.656 C 33.793 17.769 33.819 17.777 33.982 17.698 C 34.186 17.598 34.26 17.331 34.084 17.331 C 34.03 17.331 34.015 17.4 34.051 17.484 Z  M 15.761 19.124 C 15.793 19.2 15.766 19.262 15.701 19.262 C 15.637 19.262 15.612 19.304 15.646 19.355 C 15.686 19.413 15.764 19.398 15.855 19.315 C 16.042 19.145 16.04 18.986 15.851 18.986 C 15.761 18.986 15.725 19.04 15.761 19.124 Z " fill-rule="evenodd" fill="rgb(168,164,164)"/></g></g></svg>